<?xml version="1.0" encoding="UTF-8"?>
<svg id="_圖層_1" data-name="圖層_1" xmlns="http://www.w3.org/2000/svg" version="1.1" viewBox="0 0 8.52 5.17">
  <!-- Generator: Adobe Illustrator 29.8.2, SVG Export Plug-In . SVG Version: 2.1.1 Build 3)  -->
  <defs>
    <style>
      .st0 {
        fill: #fff;
      }
    </style>
  </defs>
  <path id="chevron-down-solid" class="st0" d="M3.93,5.03L.14,1.24c-.18-.18-.18-.48,0-.66,0,0,0,0,0,0l.44-.44C.76-.04,1.06-.04,1.24.14l3.02,3L7.28.14c.18-.18.48-.18.66,0l.44.44c.18.18.18.48,0,.66,0,0,0,0,0,0l-3.79,3.79c-.18.18-.48.18-.66,0,0,0,0,0,0,0Z"/>
</svg>