<?xml version="1.0" encoding="UTF-8"?>
<svg id="_1" data-name="1" xmlns="http://www.w3.org/2000/svg" viewBox="0 0 80 80">
  <defs>
    <style>
      .cls-1 {
        fill: none;
      }

      .cls-2 {
        fill: #00be76;
      }
    </style>
  </defs>
  <g id="C_-_58_Partnership_Agreement_business_cooperation_deal_handshake_partners" data-name="C - 58, Partnership, Agreement, business, cooperation, deal, handshake, partners">
    <g>
      <g>
        <polygon class="cls-1" points="26.56 66.73 17.48 66.73 17.48 49.88 35.64 49.88 35.64 66.73 26.56 66.73"/>
        <path class="cls-1" d="M25.35,36.86h2.32v-2.32h-2.32v2.32ZM25.35,38.07v2.32h2.32v-2.32h-2.32ZM35.64,49.88H14.04v-11.3c0-4.34,3.53-7.87,7.97-7.87h8.98c4.44,0,7.97,3.53,7.97,7.97v11.2h-3.33Z"/>
        <polygon class="cls-1" points="56.03 66.73 46.95 66.73 46.95 49.88 65.12 49.88 65.12 66.73 56.03 66.73"/>
        <path class="cls-1" d="M54.82,36.86h2.32v-2.32h-2.32v2.32ZM54.82,38.07v2.32h2.32v-2.32h-2.32ZM46.95,49.88h-3.43v-11.3c0-4.34,3.53-7.87,7.97-7.87h8.98c4.44,0,7.97,3.53,7.97,7.97v11.2h-21.5Z"/>
        <path class="cls-1" d="M56.03,12.63c3.73,0,6.86,3.03,6.86,6.76s-3.03,6.76-6.86,6.76-6.86-3.03-6.86-6.76,3.13-6.76,6.86-6.76Z"/>
        <path class="cls-1" d="M26.56,12.63c3.73,0,6.86,3.03,6.86,6.76s-3.03,6.76-6.86,6.76-6.86-3.03-6.86-6.76,3.13-6.76,6.86-6.76Z"/>
        <rect class="cls-2" x="54.82" y="38.07" width="2.32" height="2.32"/>
        <rect class="cls-2" x="54.82" y="34.64" width="2.32" height="2.32"/>
        <rect class="cls-2" x="25.35" y="38.07" width="2.32" height="2.32"/>
        <rect class="cls-2" x="25.35" y="34.64" width="2.32" height="2.32"/>
      </g>
      <g>
        <path class="cls-2" d="M68.55,50.48h-25.03c-.3,0-.61-.3-.61-.61v-11.3c0-4.74,3.84-8.48,8.58-8.48h8.98c4.74,0,8.58,3.84,8.58,8.58v11.2c.1.3-.2.61-.5.61ZM44.22,49.17h23.72v-10.6c0-4.04-3.33-7.37-7.37-7.37h-8.98c-4.04,0-7.27,3.23-7.27,7.27v10.7h-.1Z"/>
        <path class="cls-2" d="M56.03,26.76c-4.14,0-7.47-3.33-7.47-7.37s3.33-7.37,7.47-7.37,7.47,3.33,7.47,7.37-3.43,7.37-7.47,7.37ZM56.03,13.24c-3.43,0-6.16,2.73-6.16,6.16s2.73,6.16,6.16,6.16,6.16-2.73,6.16-6.16-2.73-6.16-6.16-6.16Z"/>
        <path class="cls-2" d="M65.12,67.44h-18.17c-.3,0-.61-.3-.61-.61v-28.26c0-.3.3-.61.61-.61s.61.3.61.61v27.56h16.86v-27.56c0-.3.3-.61.61-.61s.61.3.61.61v28.16c.1.4-.2.71-.5.71Z"/>
        <path class="cls-2" d="M56.03,67.44c-.3,0-.61-.3-.61-.61v-12.52c0-.3.3-.61.61-.61s.61.3.61.61v12.42c0,.4-.3.71-.61.71Z"/>
        <path class="cls-2" d="M39.08,50.48H14.04c-.3,0-.61-.3-.61-.61v-11.3c0-4.74,3.84-8.48,8.58-8.48h8.98c4.74,0,8.58,3.84,8.58,8.58v11.2c.1.3-.2.61-.5.61ZM14.75,49.17h23.72v-10.6c0-4.04-3.33-7.37-7.37-7.37h-8.98c-4.04,0-7.27,3.23-7.27,7.27v10.7h-.1Z"/>
        <path class="cls-2" d="M26.56,26.76c-4.14,0-7.47-3.33-7.47-7.37s3.33-7.37,7.47-7.37,7.47,3.33,7.47,7.37-3.43,7.37-7.47,7.37ZM26.56,13.24c-3.43,0-6.16,2.73-6.16,6.16s2.73,6.16,6.16,6.16,6.16-2.73,6.16-6.16-2.73-6.16-6.16-6.16Z"/>
        <path class="cls-2" d="M35.64,67.44h-18.17c-.3,0-.61-.3-.61-.61v-28.26c0-.3.3-.61.61-.61s.61.3.61.61v27.56h16.86v-27.56c0-.3.3-.61.61-.61s.61.3.61.61v28.16c.1.4-.2.71-.5.71Z"/>
        <path class="cls-2" d="M26.56,67.44c-.3,0-.61-.3-.61-.61v-12.52c0-.3.3-.61.61-.61s.61.3.61.61v12.42c0,.4-.3.71-.61.71Z"/>
        <path class="cls-2" d="M44.93,29.79h-4.74c-.3,0-.5-.2-.61-.4l-.81-1.92h-2.42c-.3,0-.61-.3-.61-.61s.3-.61.61-.61h2.83c.3,0,.5.2.61.4l.81,1.92h4.24c.3,0,.61.3.61.61.2.3-.1.61-.5.61Z"/>
        <path class="cls-2" d="M36.45,22.93c-.3,0-.61-.3-.61-.61s.3-.61.61-.61l4.24-.1.91-1.92c.1-.2.3-.4.61-.4l2.83.1c.3,0,.61.3.61.71,0,.3-.3.61-.71.61l-2.42-.1-.91,1.92c-.1.2-.3.4-.61.4h-4.54q.1,0,0,0Z"/>
      </g>
    </g>
  </g>
</svg>