<?xml version="1.0" encoding="UTF-8"?>
<svg id="_3" data-name="3" xmlns="http://www.w3.org/2000/svg" viewBox="0 0 80 80">
  <defs>
    <style>
      .cls-1 {
        fill: none;
      }

      .cls-2 {
        fill: #00be76;
      }
    </style>
  </defs>
  <g id="C_-_52_speech_Business_conference_event_presentation_room_speaker" data-name="C - 52, speech, Business, conference, event, presentation, room, speaker">
    <g>
      <g>
        <rect class="cls-1" x="36.55" y="47.22" width="9.04" height="15.67"/>
        <polygon class="cls-1" points="54.72 38.08 54.72 42.6 51.21 42.6 51.01 42.6 31.32 42.6 30.92 42.6 27.61 42.6 27.61 38.08 31.02 38.08 51.31 38.08 54.72 38.08"/>
        <path class="cls-1" d="M42.27,33.67h-2.21v2.21h2.21v-2.21ZM42.27,32.56v-2.21h-2.21v2.21h2.21ZM51.31,32.46v5.62h-20.28v-5.62c0-2.51,2.01-4.52,4.52-4.52h11.35c2.41.1,4.42,2.11,4.42,4.52Z"/>
        <path class="cls-1" d="M51.21,49.33v17.98h-20.28v-24.7h20.28v6.73h0ZM45.58,62.89v-15.67h-9.04v15.67h9.04Z"/>
        <path class="cls-1" d="M35.54,19.11c0,3.11,2.51,5.62,5.62,5.62s5.62-2.51,5.62-5.62v-.2h0v-1c-.1-.3-.2-.6-.3-.9h18.48v32.54h-13.76v-6.73h3.51v-4.52h-3.41v-5.62c0-2.41-2.01-4.42-4.42-4.42h-11.35c-2.51,0-4.52,2.01-4.52,4.52v5.62h-3.41v4.52h3.21v6.73h-13.36V16.8h18.58c-.1.2-.2.5-.3.7v1.1h0c-.2.3-.2.4-.2.5Z"/>
        <path class="cls-1" d="M41.16,24.63c-3.11,0-5.62-2.51-5.62-5.62v-.2h0v-1.1c.1-.3.2-.5.3-.7.9-2.01,2.81-3.31,5.12-3.31s4.22,1.41,5.12,3.31l.3.9v1h0v.2c.4,3.01-2.11,5.52-5.22,5.52Z"/>
        <rect class="cls-2" x="40.06" y="33.67" width="2.21" height="2.21"/>
        <rect class="cls-2" x="40.06" y="30.25" width="2.21" height="2.21"/>
      </g>
      <g>
        <path class="cls-2" d="M54.72,43.21h-3.51c-.3,0-.6-.3-.6-.6s.3-.6.6-.6h2.91v-3.21h-2.71c-.3,0-.6-.3-.6-.6s.3-.6.6-.6h3.31c.3,0,.6.3.6.6v4.52c0,.3-.3.5-.6.5Z"/>
        <path class="cls-2" d="M30.92,43.21h-3.31c-.3,0-.6-.3-.6-.6v-4.52c0-.3.3-.6.6-.6h3.41c.3,0,.6.3.6.6s-.3.6-.6.6h-2.71v3.21h2.61c.3,0,.6.3.6.6s-.3.7-.6.7Z"/>
        <path class="cls-2" d="M30.92,67.91c-.3,0-.6-.3-.6-.6v-17.98c0-.3.3-.6.6-.6s.6.3.6.6v17.98c0,.4-.3.6-.6.6Z"/>
        <path class="cls-2" d="M51.21,67.91c-.3,0-.6-.3-.6-.6v-17.98c0-.3.3-.6.6-.6s.6.3.6.6v17.98c0,.4-.3.6-.6.6Z"/>
        <path class="cls-2" d="M45.58,63.59h-9.04c-.3,0-.6-.3-.6-.6v-15.77c0-.3.3-.6.6-.6h9.04c.3,0,.6.3.6.6v15.67c0,.4-.3.7-.6.7ZM37.15,62.29h7.73v-14.46h-7.73v14.46Z"/>
        <path class="cls-2" d="M51.31,38.79h-20.28c-.3,0-.6-.3-.6-.6v-5.62c0-2.81,2.31-5.12,5.12-5.12h11.35c2.81,0,5.12,2.31,5.12,5.02v5.62c-.1.4-.3.7-.7.7ZM31.63,37.48h19.08v-5.02c0-2.11-1.71-3.82-3.82-3.82h-11.35c-2.11,0-3.92,1.71-3.92,3.82v5.02h0Z"/>
        <path class="cls-2" d="M35.64,18.6h-.1c-.3-.1-.6-.4-.5-.7v-.3c.1-.3.4-.5.8-.4.3.1.5.4.4.8v.3c0,.1-.3.3-.6.3Z"/>
        <path class="cls-2" d="M36.24,18.4h-.6l-.6-.1v-.2h0c.1-.3.4-.6.7-.5.3.1.6.4.5.7h0v.1h0Z"/>
        <path class="cls-2" d="M35.54,19.41h0c-.4,0-.6-.3-.6-.7v-.2c0-.3.3-.6.7-.6.3,0,.6.3.6.7v.1c-.1.4-.3.7-.7.7Z"/>
        <path class="cls-2" d="M35.54,19.71c-.3,0-.6-.3-.6-.6v-.3c0-.3.3-.6.7-.6.3,0,.6.3.6.7v.2c0,.3-.3.6-.7.6Z"/>
        <path class="cls-2" d="M46.79,19.71c-.3,0-.6-.3-.6-.6v-.2c0-.3.2-.6.6-.7.3,0,.6.3.7.6v.3c-.1.3-.3.6-.7.6Z"/>
        <path class="cls-2" d="M46.79,19.41c-.3,0-.6-.3-.6-.6v-.1c0-.3.2-.6.6-.7.3,0,.6.2.7.6v.1c-.1.4-.3.7-.7.7h0Z"/>
        <path class="cls-2" d="M46.79,19.01c-.3,0-.6-.2-.6-.5h0v-.2h0c-.1-.3.2-.7.5-.7.3-.1.7.2.7.5h0v.2h0c0,.3-.2.6-.6.7h0Z"/>
        <path class="cls-2" d="M46.69,18.6c-.3,0-.6-.2-.6-.5v-.1h0v-.1l.6-.2.6-.2-.6.2.6-.1v.2c.1.3-.1.7-.5.7,0,.1-.1.1-.1.1Z"/>
        <path class="cls-2" d="M36.04,17.4c-.1,0-.2,0-.3-.1-.3-.1-.5-.5-.3-.8,1-2.21,3.21-3.72,5.72-3.72s4.72,1.41,5.72,3.72c.1.3,0,.7-.3.8-.3.1-.7,0-.8-.3-.8-1.81-2.61-2.91-4.52-2.91-2.01,0-3.71,1.21-4.52,2.91-.2.3-.5.4-.7.4Z"/>
        <path class="cls-2" d="M64.86,49.93h-13.66c-.3,0-.6-.3-.6-.6v-6.13h-19.08v6.13c0,.3-.3.6-.6.6h-13.46c-.3,0-.6-.3-.6-.6V16.8c0-.3.3-.6.6-.6h18.58c.2,0,.4.1.5.3.1.2.1.4,0,.6-.1.2-.2.4-.2.6v.4h0v.2h0v.3h0v.2c0,2.71,2.21,4.92,5.02,4.92s5.02-2.21,5.02-4.92v-.2h0v-.3h0v-.1h0v-.1h0v-.2h0v-.1h0c-.1-.3-.2-.5-.3-.8-.1-.2-.1-.4,0-.6s.3-.3.5-.3h18.48c.3,0,.6.3.6.6v32.54c-.2.5-.5.7-.8.7ZM51.81,48.73h12.45v-31.33h-17.07v1.21h0v.3c0,3.41-2.81,6.23-6.23,6.23s-6.23-2.81-6.23-6.23v-.3h0v-1.31h-17.07v31.33h12.15v-6.13c0-.3.3-.6.6-.6h20.28c.3,0,.6.3.6.6v6.23h.5Z"/>
        <path class="cls-2" d="M68.28,67.91H14.05c-.3,0-.6-.3-.6-.6s.3-.6.6-.6h54.12c.3,0,.6.3.6.6.1.4-.2.6-.5.6Z"/>
      </g>
    </g>
  </g>
</svg>