<?xml version="1.0" encoding="UTF-8"?>
<svg id="_1" data-name="1" xmlns="http://www.w3.org/2000/svg" viewBox="0 0 80 80">
  <defs>
    <style>
      .cls-1 {
        fill: none;
      }

      .cls-2 {
        fill: #00be76;
      }
    </style>
  </defs>
  <g id="C_-_57_Development_growth_human_person_personal_power_talent" data-name="C - 57, Development, growth, human, person, personal, power, talent">
    <g>
      <g>
        <path class="cls-1" d="M46.7,42.56v4.54h-12.52v-4.44c0-1.31,1.01-2.32,2.32-2.32h7.97c1.21,0,2.22.91,2.22,2.22Z"/>
        <path class="cls-1" d="M40.44,31.26c1.92,0,3.43,1.51,3.43,3.33s-1.51,3.33-3.43,3.33-3.43-1.51-3.43-3.33c.1-1.82,1.61-3.33,3.43-3.33Z"/>
        <path class="cls-1" d="M24.09,24.5c1.21,0,2.22,1.01,2.22,2.22s-1.01,2.22-2.22,2.22h-.4c-1.01-.2-1.82-1.11-1.82-2.22,0-1.01.61-1.82,1.51-2.12.1,0,.2-.1.3-.1h.4q-.1,0,0,0Z"/>
        <path class="cls-1" d="M65.98,33.48c0,.61-.2,1.11-.61,1.51h0l-.1.1-.1.1q-.1.1-.2.2s-.1,0-.1.1h-.1s-.1,0-.1.1h-1.01c-1.21,0-2.22-1.01-2.22-2.22v-.61h0v-.3c.4-.81,1.11-1.31,2.02-1.31,1.51.1,2.52,1.11,2.52,2.32Z"/>
        <path class="cls-1" d="M24.09,56.09c1.21,0,2.22,1.01,2.22,2.22v1.01s0,.1-.1.1v.2s0,.1-.1.1c0,0,0,.1-.1.1l-.1.1c-.1.1-.2.2-.3.3-.1.1-.2.1-.2.2,0,0-.1,0-.1.1-.3.1-.61.2-.91.3h-.1c-1.21,0-2.22-1.01-2.22-2.22,0-1.11.81-2.02,1.82-2.22h.4q-.3-.3-.2-.3Z"/>
      </g>
      <g>
        <path class="cls-2" d="M41.05,52.76c-2.52,0-5.05-.1-7.47-.4-3.43-.4-6.66-1.11-9.49-2.12-6.96-2.32-10.9-5.95-10.9-9.89s3.84-7.47,10.6-9.79c3.03-1.11,6.46-1.82,10.3-2.22,2.22-.3,4.64-.4,6.96-.4s4.54.1,6.76.4c3.63.4,6.96,1.11,9.99,2.12,1.51.5,2.93,1.11,4.14,1.72.3.2.4.5.3.81v.1h0v.1h0c-.1.3-.4.5-.71.4-.3-.1-.4-.3-.5-.5-1.11-.5-2.32-1.01-3.53-1.41-2.93-1.01-6.16-1.61-9.69-2.02-2.12-.2-4.34-.4-6.56-.4s-4.64.1-6.86.4c-3.63.4-7.07,1.11-9.99,2.22-3.03,1.01-5.55,2.42-7.17,3.94-1.72,1.51-2.52,3.13-2.52,4.74,0,3.33,3.73,6.56,9.99,8.68,2.73.91,5.85,1.61,9.18,2.02,2.42.3,4.84.4,7.37.4,2.32,0,4.64-.1,6.86-.4,3.43-.4,6.56-1.01,9.39-2.02,6.46-2.12,10.29-5.45,10.29-8.78,0-1.62-.91-3.23-2.62-4.74-.3-.2-.3-.61-.1-.91.2-.3.61-.3.91-.1,2.02,1.82,3.03,3.73,3.03,5.75,0,4.04-4.04,7.67-11.2,9.99-2.93.91-6.16,1.62-9.59,2.02-2.42.1-4.74.3-7.17.3Z"/>
        <path class="cls-2" d="M65.27,35.8c-.2,0-.3-.1-.5-.2-.2-.3-.2-.71,0-.91l.1-.1h0c.2-.3.61-.3.91-.1.3.2.3.61.1.91l-.1.1h0l-.1.1c-.1.2-.3.2-.4.2Z"/>
        <path class="cls-2" d="M64.97,36c-.2,0-.4-.1-.5-.3-.2-.3-.1-.71.2-.91h0l.71,1.01-.1.1c-.1.1-.2.1-.3.1Z"/>
        <path class="cls-2" d="M64.87,36.1c-.2,0-.4-.1-.5-.3-.2-.3-.1-.71.2-.91h0c.3-.2.71-.1.91.2.2.3.1.71-.2.91,0,0-.1,0-.1.1h-.3Z"/>
        <path class="cls-2" d="M64.67,36.21c-.2,0-.5-.1-.61-.4-.1-.3,0-.71.3-.81h.1c.3-.2.71,0,.81.3.2.3,0,.71-.3.81h-.1c0,.1-.1.1-.2.1Z"/>
        <path class="cls-2" d="M64.37,36.31c-.3,0-.5-.2-.61-.5-.1-.3.1-.71.4-.81h.2c.3-.1.71,0,.81.3.1.3,0,.71-.3.81,0,0-.1,0-.1.1,0,0-.1,0-.1.1h-.3Z"/>
        <path class="cls-2" d="M64.06,36.41c-.3,0-.61-.2-.61-.5s.2-.71.5-.71h0c.3-.1.71.1.71.5.1.3-.1.71-.5.71.1,0,0,0-.1,0,.1,0,0,0,0,0Z"/>
        <path class="cls-2" d="M63.76,36.41c-.3,0-.61-.3-.61-.61s.3-.61.61-.61h.2c.3,0,.71.2.71.5s-.2.71-.5.71h-.4Z"/>
        <path class="cls-2" d="M61.44,34.19c-.3,0-.61-.3-.61-.61v-.4c0-.3.4-.61.71-.5.3,0,.61.4.5.71v.1h0v.1c0,.3-.2.61-.61.61Z"/>
        <path class="cls-2" d="M61.54,33.78q-.1,0,0,0c-.4-.1-.71-.4-.61-.71v-.1c.1-.3.4-.5.81-.5.3.1.5.4.5.81h0c-.2.3-.4.5-.71.5Z"/>
        <path class="cls-2" d="M61.54,33.58h-.1c-.3-.1-.5-.4-.5-.81v-.1c.1-.3.5-.5.81-.4.3.1.5.5.4.81h0c-.1.3-.3.5-.61.5Z"/>
        <path class="cls-2" d="M30.05,65.78c-1.21,0-2.32-.3-3.33-.81-1.41-.81-2.52-2.22-3.13-4.14v-.2c0-.3.3-.61.61-.61.2,0,.5-.1.71-.2.3-.2.71,0,.81.3.1.3,0,.71-.3.81-.1.1-.2.1-.4.2.5,1.31,1.31,2.22,2.32,2.83,3.03,1.72,7.87,0,13.02-4.54,2.42-2.12,4.84-4.85,7.07-7.87,1.21-1.61,2.32-3.33,3.33-5.15,1.11-2.02,2.22-4.04,3.03-5.96,1.41-3.23,2.52-6.46,3.13-9.49,1.41-6.76.4-11.81-2.52-13.52-3.03-1.72-7.87,0-13.02,4.54-2.32,2.02-4.64,4.54-6.76,7.47-1.31,1.72-2.52,3.63-3.63,5.55-1.21,2.02-2.22,4.04-3.13,6.16-1.31,3.03-2.32,5.96-2.93,8.78-.5,2.12-.71,4.14-.71,5.96.1.1.1.2.1.3,0,.3-.2.71-.5.71h-.2c-.2,0-.4,0-.5-.1s-.2-.3-.2-.5c0-2.02.2-4.24.81-6.66.61-2.93,1.61-5.96,3.03-8.98.91-2.12,2.02-4.24,3.13-6.26,1.21-2.02,2.42-3.94,3.73-5.75,2.22-3.03,4.54-5.55,6.96-7.67,5.65-4.95,10.9-6.66,14.43-4.64,3.53,2.02,4.74,7.47,3.13,14.94-.61,3.13-1.72,6.36-3.23,9.69-.91,2.02-1.92,4.14-3.13,6.16-1.01,1.82-2.22,3.53-3.43,5.25-2.32,3.13-4.74,5.85-7.27,8.07-3.94,3.43-7.87,5.35-11,5.35Z"/>
        <path class="cls-2" d="M23.89,56.69c-.3,0-.61-.3-.61-.61s.2-.61.61-.71h.2c.3,0,.61.3.61.61s-.3.61-.61.61q-.1.1-.2.1c.1,0,0,0,0,0Z"/>
        <path class="cls-2" d="M26.31,59.32h-.1c-.3-.1-.61-.4-.5-.71h0v-.1c0-.3.3-.61.71-.61.3,0,.61.3.61.71v.3c-.2.2-.4.4-.71.4Z"/>
        <path class="cls-2" d="M26.21,59.62h-.2c-.3-.1-.5-.5-.4-.81v-.1h0c.1-.3.4-.61.71-.5.3.1.61.4.5.71v.3c-.1.3-.3.4-.61.4Z"/>
        <path class="cls-2" d="M26.11,59.82c-.1,0-.2,0-.3-.1-.3-.1-.4-.5-.3-.81h0c.1-.3.5-.5.81-.4.3.1.5.5.4.81v.1c-.1.3-.3.4-.61.4Z"/>
        <path class="cls-2" d="M26.01,60.13c-.1,0-.2,0-.3-.1-.3-.2-.4-.61-.2-.91h0c.1-.3.5-.5.81-.3.3.1.5.5.3.81,0,0,0,.1-.1.1,0,0,0,.1-.1.1,0,.2-.2.3-.4.3Z"/>
        <path class="cls-2" d="M25.81,60.43c-.1,0-.3,0-.4-.1-.3-.2-.3-.61-.1-.91h0c.2-.3.61-.4.91-.2.3.2.4.61.2.91v-.1l-.1.1c-.1.2-.3.3-.5.3Z"/>
        <path class="cls-2" d="M25.2,60.93c-.2,0-.4-.1-.5-.3-.2-.3-.1-.71.2-.91.1,0,.1-.1.2-.1.3-.2.71-.2.91.1.2.3.2.71-.1.91-.1.1-.2.1-.3.2-.2,0-.3.1-.4.1Z"/>
        <path class="cls-2" d="M51.65,65.78c-3.23,0-7.17-1.92-11.2-5.55-2.52-2.22-5.05-4.95-7.27-8.18-1.21-1.72-2.42-3.43-3.43-5.35-1.11-1.92-2.12-3.84-2.93-5.75-1.51-3.33-2.62-6.66-3.33-9.79-.2-.71-.3-1.41-.4-2.12-.1-.3.2-.71.5-.71.3-.1.71.2.71.5.1.71.2,1.41.4,2.12.71,3.03,1.72,6.26,3.23,9.49.81,1.92,1.82,3.73,2.93,5.65,1.01,1.82,2.22,3.53,3.43,5.25,2.22,3.13,4.64,5.75,7.17,7.97,5.15,4.54,10.09,6.26,13.12,4.54,3.13-1.82,4.04-6.96,2.52-13.93-.61-2.93-1.61-5.96-3.03-9.08-.91-2.02-1.92-4.14-3.13-6.16-1.11-1.92-2.22-3.73-3.53-5.35-2.12-2.93-4.34-5.45-6.66-7.47-5.35-4.84-10.4-6.66-13.42-4.84-2.62,1.51-3.23,5.05-3.23,7.77,0,.3-.3.61-.61.61h0c-.3,0-.61-.3-.61-.61,0-4.34,1.41-7.47,3.84-8.88,3.63-2.12,9.08-.3,14.94,5.05,2.32,2.12,4.64,4.74,6.76,7.67,1.31,1.72,2.42,3.53,3.53,5.45,1.21,2.02,2.22,4.14,3.23,6.26,1.41,3.23,2.42,6.36,3.13,9.39,1.61,7.67.5,13.22-3.13,15.34-1.21.4-2.32.71-3.53.71Z"/>
        <path class="cls-2" d="M23.79,29.64h-.2c-.3-.1-.61-.4-.5-.71.1-.3.4-.61.71-.5h0c.3,0,.61.3.61.71,0,.2-.2.5-.61.5Z"/>
        <path class="cls-2" d="M23.89,25.1c-.3,0-.61-.2-.61-.61,0-.3.2-.61.61-.71h.1c.3,0,.61.3.71.61,0,.3-.3.61-.61.71h-.2Z"/>
        <path class="cls-2" d="M23.89,25.1l-.1-.61-.1-.61h.1c.3,0,.61.2.71.61,0,.3-.3.61-.61.61h0Z"/>
        <path class="cls-2" d="M23.59,25.2c-.3,0-.5-.2-.61-.5-.1-.3.1-.71.5-.71h.1c.3-.1.71.2.71.5.1.3-.2.71-.5.71h-.2Z"/>
        <path class="cls-2" d="M63.76,36.41c-1.62,0-2.93-1.31-2.93-2.93v-1.21q0-.1.1-.1c.5-1.01,1.51-1.72,2.62-1.72,1.62,0,2.93,1.31,2.93,2.93,0,.71-.3,1.41-.71,1.92h0l-.1.1-.1.1c-.1.1-.2.1-.2.2l-.1.1h0s-.1,0-.1.1l-.1.1h-.2s-.1,0-.1.1h-.1c-.1,0-.2,0-.2.1h-.4c-.2.2-.3.2-.3.2ZM62.15,33.08h0v.1h0v.1h0v.2c0,.91.71,1.62,1.62,1.62h.61l.1-.1.1-.1h0c.3-.3.4-.71.4-1.11,0-.91-.71-1.61-1.61-1.61-.61,0-1.21.4-1.51.91h0q.3-.1.3,0,0-.1,0,0,0-.1,0,0c0-.1,0,0,0,0Z"/>
        <path class="cls-2" d="M24.09,61.24c-1.61,0-2.93-1.31-2.93-2.93,0-1.31,1.01-2.52,2.32-2.83h.71c1.62,0,2.93,1.31,2.93,2.93v.1h0v.71s0,.1-.1.2v.1q0,.1-.1.2s0,.1-.1.1v.1h0l-.1.1s0,.1-.1.1l-.1.1h0c-.1.2-.3.3-.4.4-.1.1-.2.1-.3.2l-.1.1c-.4.2-.81.3-1.21.3h-.4ZM24.09,56.69q-.1,0,0,0h-.3c-.71.2-1.31.81-1.31,1.62,0,.91.71,1.61,1.61,1.61h.1c.2,0,.5-.1.71-.2h.1c.1,0,.1-.1.2-.1.1-.1.2-.2.2-.2h0v-.1h0v-.1h0v-.1h0v-.2h0v-.2c.3-1.31-.5-2.02-1.31-2.02Z"/>
        <path class="cls-2" d="M24.09,29.64h-.61c-1.31-.3-2.32-1.41-2.32-2.83,0-1.21.81-2.32,1.92-2.73.1,0,.2-.1.4-.1h.61c1.62,0,2.93,1.31,2.93,2.93-.1,1.41-1.41,2.73-2.93,2.73ZM24.09,25.1q-.1,0,0,0h-.3q-.1,0-.2.1c-.71.3-1.21.91-1.21,1.51,0,.81.61,1.41,1.31,1.62h.3c.91,0,1.61-.71,1.61-1.62.1-.81-.71-1.61-1.51-1.61Z"/>
        <path class="cls-2" d="M46.7,47.71h-12.52c-.3,0-.61-.3-.61-.61v-4.44c0-1.61,1.31-2.93,2.93-2.93h7.97c1.62,0,2.83,1.31,2.83,2.83v4.54c.1.3-.2.61-.61.61ZM34.89,46.4h11.3v-3.94c0-.91-.71-1.62-1.62-1.62h-8.07c-.91,0-1.72.71-1.72,1.62l.1,3.94h0Z"/>
        <path class="cls-2" d="M40.44,38.63c-2.22,0-4.04-1.82-4.04-4.04s1.82-4.04,4.04-4.04,4.04,1.82,4.04,4.04-1.82,4.04-4.04,4.04ZM40.44,31.87c-1.51,0-2.73,1.21-2.73,2.73s1.21,2.73,2.73,2.73,2.73-1.21,2.73-2.73c.1-1.41-1.21-2.73-2.73-2.73Z"/>
      </g>
    </g>
  </g>
</svg>