<?xml version="1.0" encoding="UTF-8"?>
<svg id="_1" data-name="1" xmlns="http://www.w3.org/2000/svg" viewBox="0 0 80 80">
  <defs>
    <style>
      .cls-1 {
        fill: none;
      }

      .cls-2 {
        opacity: .5;
      }

      .cls-3 {
        fill: #00be76;
      }
    </style>
  </defs>
  <g id="C_-_71_creative_Brain_idea_lightbulb_mind_personal_power_success" data-name="C - 71, creative, Brain, idea, lightbulb, mind, personal, power, success">
    <g>
      <g>
        <polygon class="cls-1" points="31.57 44.51 31.57 47.84 29.35 47.84 27.13 47.84 27.13 44.51 31.57 44.51"/>
        <path class="cls-1" d="M31.57,36.44h.61q.1,0,.2-.1t.2-.1h.2c.1,0,.3-.1.4-.1s.1,0,.2-.1c.2-.1.4-.1.5-.2v8.68h-8.98v-8.68c.1,0,.2.1.3.1.1.1.3.1.5.2.1,0,.2.1.4.1h.2c.1,0,.3.1.4.1h5.15l-.3.1Z"/>
        <g class="cls-2">
          <path class="cls-1" d="M31.57,36.44h-5.25c-.1,0-.3-.1-.4-.1h-.2c-.1,0-.2-.1-.4-.1s-.3-.1-.5-.2c-.1,0-.2-.1-.3-.1-4.34-1.92-7.67-6.46-7.67-11.71,0-6.86,5.55-12.42,12.52-12.42,3.03,0,5.75,1.11,7.97,2.83l.2.2q.1.1.2.2t.2.2h0l.2.2.1.1q.1.1.2.2h0q.1.1.2.2c.2.2.4.4.61.71l.1.1c0,.1.1.1.1.2.1.1.1.2.2.3h0c0,.1.1.1.1.2s.1.1.1.2v.1c0,.1.1.1.1.2h0c0,.1.1.1.1.2v.1c0,.1.1.1.1.2.1.2.2.4.3.5,0,.1.1.2.1.3h0c0,.1.1.2.1.2,0,.1.1.2.1.2h0c0,.1.1.2.1.3h0c0,.1.1.2.1.3s.1.2.1.3c.1.4.2.81.3,1.21v.5c0,.1,0,.3.1.4v.2h0v3.73c0,.1,0,.2-.1.3,0,.1,0,.2-.1.3,0,.1-.1.2-.1.3s-.1.2-.1.3-.1.2-.1.3-.1.2-.1.3c-.1.3-.2.5-.3.71,0,0,0,.1-.1.1,0,.1-.1.2-.1.3s-.1.2-.1.2v.1c0,.1-.1.1-.1.2-.1.2-.2.3-.3.5,0,.1-.1.1-.1.2-.2.3-.3.5-.5.81-.1.2-.3.4-.4.5l-.1.1s0,.1-.1.1l-.1.1c-.1.1-.2.2-.3.3l-.2.2-.2.2q-.1.1-.2.2c-.2.2-.4.3-.5.5l-.1.1c-.1,0-.1.1-.2.1s-.1.1-.2.1l-.1.1c-.4.3-.81.61-1.21.81-.1.1-.2.1-.3.2,0,0-.1,0-.1.1-.1,0-.1.1-.2.1-.2.1-.3.2-.5.3,0,0-.1,0-.1.1q-.1,0-.2.1c-.1,0-.2.1-.3.1-.2.1-.4.1-.5.2q-.1,0-.2.1c-.1,0-.3.1-.4.1h-.2q-.1,0-.2.1-.1,0-.2.1h-.4c.3-.2.2-.2.1-.2Z"/>
        </g>
        <g class="cls-2">
          <path class="cls-1" d="M52.06,65.91h-22.71v-18.07h2.22v-3.43h2.22v-8.68c.1,0,.2-.1.3-.1s.1,0,.2-.1c0,0,.1,0,.1-.1.2-.1.4-.2.5-.3.1,0,.1-.1.2-.1,0,0,.1,0,.1-.1.1-.1.2-.1.3-.2.4-.3.81-.5,1.21-.81l.1-.1c.1,0,.1-.1.2-.1s.1-.1.2-.1l.1-.1c.2-.2.4-.3.5-.5q.1-.1.2-.2t.2-.2.2-.2c.1-.1.2-.2.3-.3l.1-.1s0-.1.1-.1l.1-.1c.1-.2.3-.4.4-.5.2-.3.4-.5.5-.81,0-.1.1-.1.1-.2.1-.2.2-.3.3-.5,0-.1.1-.1.1-.2v-.1c0-.1.1-.2.1-.2,0-.1.1-.2.1-.3,0,0,0-.1.1-.1.1-.2.2-.5.3-.71,0-.1.1-.2.1-.3s.1-.2.1-.3.1-.2.1-.3.1-.2.1-.3,0-.2.1-.3c0-.1,0-.2.1-.3v-3.73h0v-.2c0-.1,0-.3-.1-.4v-.5c-.1-.4-.2-.81-.3-1.21,0-.1-.1-.2-.1-.3s-.1-.2-.1-.3h0c0-.1-.1-.2-.1-.3v-.1c0-.1-.1-.2-.1-.2,0-.1-.1-.2-.1-.2h0c0-.1-.1-.2-.1-.3-.1-.2-.2-.4-.3-.5,0-.1-.1-.1-.1-.2v-.1c0-.1-.1-.1-.1-.2h0c0-.1-.1-.1-.1-.2v-.1c0-.1-.1-.1-.1-.2s-.1-.1-.1-.2h0c-.1-.1-.1-.2-.2-.3,0-.1-.1-.1-.1-.2l-.1-.1c-.2-.2-.4-.5-.61-.71l-.2-.2h0q-.1-.1-.2-.2l-.1-.1q-.1-.1-.2-.2h0q-.1-.1-.2-.2-.1-.1-.2-.2l-.2-.2c2.73-1.82,6.06-2.83,9.59-2.83h0c9.69,0,17.56,7.87,17.56,17.46v9.59h-4.54v12.42h-7.97v7.87l-.1,7.17Z"/>
        </g>
      </g>
      <g>
        <path class="cls-3" d="M37.93,15.85c-.2,0-.3-.1-.4-.2l-.2-.2h0q-.1-.1-.2-.2c-.3-.2-.3-.61-.1-.91.2-.3.61-.3.91-.1.1.1.2.1.2.2.1.1.2.1.2.2.2.2.3.61,0,.91-.1.2-.2.3-.4.3Z"/>
        <path class="cls-3" d="M38.13,16.05c-.2,0-.3-.1-.5-.2,0-.1-.1-.1-.2-.1l.91-.91q.1.1.2.2c.2.2.2.61,0,.91-.1,0-.2.1-.4.1Z"/>
        <path class="cls-3" d="M38.34,16.25c-.2,0-.3-.1-.5-.2,0-.1-.1-.1-.1-.1-.2-.2-.3-.61,0-.91.2-.2.61-.3.91,0q.1.1.2.2c.2.3.2.61,0,.91-.2,0-.3.1-.5.1Z"/>
        <path class="cls-3" d="M38.64,16.45c-.2,0-.3-.1-.5-.2-.1,0-.1-.1-.2-.2-.2-.2-.2-.61,0-.91.2-.2.61-.2.91,0q.1.1.2.2c.2.3.2.71,0,.91-.1.2-.3.2-.4.2Z"/>
        <path class="cls-3" d="M39.55,17.77c-.2,0-.4-.1-.5-.3-.1-.1-.1-.2-.2-.2,0-.1-.1-.1-.1-.2l-.1-.1c-.2-.3-.2-.71.1-.91.3-.2.71-.2.91.1l.1.1c0,.1.1.1.1.2.1.1.1.2.2.3.2.3.1.71-.2.91,0,0-.1.1-.3.1Z"/>
        <path class="cls-3" d="M39.85,18.07c-.2,0-.4-.1-.5-.3l-.1-.1h0c0-.1-.1-.1-.1-.2-.2-.3-.1-.71.1-.91.3-.2.71-.1.91.1q.1.1.2.2c0,.1.1.1.1.2.2.3.1.71-.2.91-.2.1-.3.1-.4.1Z"/>
        <path class="cls-3" d="M40.05,18.37c-.2,0-.4-.1-.5-.3,0-.1-.1-.1-.1-.2-.2-.3-.1-.71.2-.91.3-.2.71-.1.91.2.1.1.1.2.1.2.2.3.1.71-.2.91-.2.1-.3.1-.4.1Z"/>
        <path class="cls-3" d="M40.15,18.67c-.2,0-.4-.1-.5-.3,0-.1-.1-.1-.1-.2-.2-.3-.1-.71.2-.91.3-.2.71-.1.91.2,0,.1.1.2.1.2.2.3.1.71-.2.91-.2,0-.3.1-.4.1Z"/>
        <path class="cls-3" d="M40.76,19.68c-.2,0-.5-.1-.61-.4,0-.1-.1-.2-.1-.2-.2-.3,0-.71.3-.81.3-.2.71,0,.81.3,0,.1.1.2.1.3.1.3,0,.71-.3.81h-.2Z"/>
        <path class="cls-3" d="M40.96,20.19c-.2,0-.5-.1-.61-.4,0-.1-.1-.1-.1-.2s-.1-.1-.1-.2c-.1-.3,0-.71.3-.81.3-.1.71,0,.81.3,0,.1.1.2.1.2,0,.1.1.2.1.3.1.3,0,.71-.4.81h-.1Z"/>
        <path class="cls-3" d="M41.06,20.59c-.3,0-.5-.2-.61-.4,0-.1-.1-.2-.1-.2-.1-.3,0-.71.3-.81.3-.1.71,0,.81.3,0,.1.1.2.1.3.1.3,0,.71-.4.81.1,0,0,0-.1,0Z"/>
        <path class="cls-3" d="M41.26,21.1c-.3,0-.5-.2-.61-.4,0-.1-.1-.2-.1-.3h0c0-.1-.1-.2-.1-.3-.1-.3,0-.71.4-.81.3-.1.71,0,.81.4,0,.1.1.2.1.3s.1.2.1.3c.1.3-.1.71-.4.81h-.2Z"/>
        <path class="cls-3" d="M41.67,22.61c-.3,0-.61-.2-.61-.5v-.2c-.1-.3.2-.71.5-.71.3-.1.71.2.71.5v.2c.1.3-.2.71-.5.71h-.1Z"/>
        <path class="cls-3" d="M41.67,22.91c-.3,0-.61-.2-.61-.5v-.2h0c-.1-.3.2-.71.5-.71.3-.1.71.2.71.5h0v.2c.1.4-.1.71-.61.71q.1,0,0,0Z"/>
        <path class="cls-3" d="M41.77,23.52c-.3,0-.61-.2-.61-.61h0v-.2c0-.3.2-.71.5-.71s.71.2.71.5v.2h0c.1.5-.2.81-.61.81h0Z"/>
        <path class="cls-3" d="M41.87,24.43c-.3,0-.61-.3-.61-.61v-.91c0-.3.2-.71.61-.71.3,0,.71.2.71.61v.91c-.1.4-.4.71-.71.71h0Z"/>
        <path class="cls-3" d="M41.87,24.83c-.3,0-.61-.3-.61-.61v-.3c0-.3.3-.61.61-.61s.61.3.61.61v.3c0,.3-.3.61-.61.61Z"/>
        <path class="cls-3" d="M41.87,25.23q-.1,0,0,0c-.4,0-.61-.3-.61-.71v-.1c0-.3.3-.61.61-.61s.61.3.61.61v.2c0,.4-.3.61-.61.61Z"/>
        <path class="cls-3" d="M41.77,26.04h0c-.4,0-.71-.3-.61-.71v-.5c0-.3.3-.61.61-.61s.61.3.61.61v.61c0,.4-.3.61-.61.61Z"/>
        <path class="cls-3" d="M41.77,26.55q-.1,0,0,0c-.4-.1-.71-.4-.61-.71v-.2c0-.3.3-.61.71-.61.3,0,.61.3.61.71v.2c-.2.3-.4.61-.71.61Z"/>
        <path class="cls-3" d="M41.67,27.05h-.1c-.3-.1-.61-.4-.5-.71v-.3c.1-.3.4-.61.71-.5.3.1.61.4.5.71v.3c-.1.2-.3.5-.61.5Z"/>
        <path class="cls-3" d="M41.57,27.56h-.1c-.3-.1-.5-.4-.5-.81,0-.1,0-.2.1-.2v-.3c.1-.3.4-.61.71-.5.3.1.61.4.5.71,0,.1,0,.2-.1.3,0,.1,0,.2-.1.3,0,.4-.3.5-.5.5Z"/>
        <path class="cls-3" d="M41.16,28.77h-.2c-.3-.1-.5-.5-.4-.81,0-.1.1-.2.1-.3h0c0-.1.1-.2.1-.3s.1-.2.1-.3c.1-.3.4-.5.81-.4.3.1.5.4.4.81,0,.1-.1.2-.1.3s-.1.2-.1.3-.1.2-.1.3c-.1.3-.3.4-.61.4Z"/>
        <path class="cls-3" d="M40.86,29.68c-.1,0-.2,0-.3-.1-.3-.1-.5-.5-.3-.81v-.1h0c.1-.3.5-.5.81-.3.3.1.5.5.3.81h0v.1c-.1.3-.3.4-.5.4Z"/>
        <path class="cls-3" d="M40.66,30.18c-.1,0-.2,0-.3-.1-.3-.1-.5-.5-.3-.81h0c0-.1.1-.1.1-.2.1-.3.5-.5.81-.3.3.1.5.5.3.81,0,.1-.1.2-.1.2-.1.3-.3.4-.5.4Z"/>
        <path class="cls-3" d="M40.46,30.48c-.1,0-.2,0-.3-.1-.3-.2-.4-.5-.3-.81v-.1s0-.1.1-.1c.1-.3.5-.4.81-.3.3.1.4.5.3.81,0,.1-.1.1-.1.2v.1c0,.2-.3.3-.5.3Z"/>
        <path class="cls-3" d="M40.15,31.09c-.1,0-.2,0-.3-.1-.3-.2-.4-.61-.2-.91l.1-.1c.2-.3.61-.4.91-.2.3.2.4.61.2.91,0,.1-.1.1-.1.2-.2.1-.4.2-.61.2Z"/>
        <path class="cls-3" d="M39.04,32.6c-.1,0-.3,0-.4-.1-.3-.2-.3-.61-.1-.91l.1-.1c.1-.2.3-.4.4-.5.2-.3.61-.4.91-.2.3.2.4.61.2.91-.1.2-.3.4-.4.61,0,.1-.1.1-.1.1-.2.1-.4.2-.61.2Z"/>
        <path class="cls-3" d="M38.64,33.21c-.1,0-.3-.1-.4-.2-.3-.2-.3-.61,0-.91.1-.1.2-.2.3-.3l.1-.1h0c.2-.3.61-.3.91-.1.3.2.3.61.1.91h0l-.1.1c-.1.1-.2.2-.3.3-.3.2-.5.3-.61.3Z"/>
        <path class="cls-3" d="M38.13,33.71c-.2,0-.3-.1-.4-.2-.2-.2-.2-.61,0-.91.1,0,.1-.1.1-.1q.1-.1.1-.2c.2-.3.61-.3.91,0,.3.2.3.61,0,.91q-.1.1-.2.2t-.2.2s-.2.1-.3.1Z"/>
        <path class="cls-3" d="M37.23,34.42c-.2,0-.4-.1-.5-.2-.2-.3-.2-.71.1-.91.1,0,.1-.1.2-.1l.1-.1c.3-.2.61-.2.91,0,.2.3.2.61,0,.91,0,0-.1.1-.2.1q-.1.1-.2.2c-.1.1-.2.1-.4.1Z"/>
        <path class="cls-3" d="M37.02,34.62c-.2,0-.4-.1-.5-.2-.2-.3-.2-.71.1-.91h0l.1-.1c.3-.2.71-.2.91.1.2.3.2.71-.1.91l-.1.1c-.2.1-.3.1-.4.1Z"/>
        <path class="cls-3" d="M35.41,35.73c-.2,0-.4-.1-.5-.3-.2-.3-.1-.71.2-.81.1-.1.2-.1.3-.2.3-.2.71-.1.91.2.2.3.1.71-.2.91-.1.1-.2.1-.3.2-.2-.1-.3,0-.4,0Z"/>
        <path class="cls-3" d="M35.11,35.83c-.2,0-.5-.1-.61-.3-.2-.3,0-.71.3-.81.1,0,.1-.1.2-.1.3-.2.71-.1.81.2.2.3.1.71-.2.81-.1,0-.1.1-.2.1-.2.1-.3.1-.3.1Z"/>
        <path class="cls-3" d="M34.2,36.24c-.2,0-.5-.1-.61-.4s0-.71.4-.81c0,0,.1,0,.1-.1q.1,0,.1-.1c.3-.1.71,0,.81.3.1.3,0,.71-.3.81q-.1,0-.2.1c-.1,0-.1.1-.2.1.1.1,0,.1-.1.1Z"/>
        <path class="cls-3" d="M52.06,66.62h-22.71c-.3,0-.61-.3-.61-.61v-18.17c0-.3.3-.61.61-.61s.61.3.61.61v17.46h21.4v-14.03c0-.2.1-.3.2-.4.1-.1.3-.2.4-.2h7.27v-11.81c0-.3.3-.61.61-.61h3.94v-8.98c0-9.29-7.57-16.86-16.96-16.86-3.33,0-6.46.91-9.29,2.72-.3.2-.71.1-.91-.2-.2-.3-.1-.71.2-.91,2.93-1.92,6.36-2.93,9.89-2.93,10.09,0,18.27,8.18,18.27,18.17v9.59c0,.3-.3.61-.61.61h-3.94v11.81c0,.2-.1.3-.2.4-.1.1-.3.2-.4.2h-7.27v14.03c0,.2-.1.3-.2.4s-.2.3-.3.3Z"/>
        <path class="cls-3" d="M52.06,66.62c-.1,0-.3,0-.4-.1l-17.06-12.52c-.3-.2-.3-.61-.1-.91.2-.3.61-.3.91-.1l16.96,12.42c.3.2.3.61.1.91-.1.2-.2.3-.4.3Z"/>
        <path class="cls-3" d="M25.52,36.64h-.2c-.2,0-.3-.1-.5-.2-.1,0-.2-.1-.3-.1-2.42-.91-4.54-2.52-5.96-4.74-1.51-2.22-2.32-4.74-2.32-7.47,0-7.17,5.85-13.02,13.12-13.02,3.03,0,6.06,1.11,8.38,3.03q.1.1.2.2c.1.1.2.1.2.2q.1.1.2.2h0q.1.1.2.2l.1.1q.1.1.2.2h0l.2.2c.2.2.4.5.61.71l.1.1c0,.1.1.1.1.2.1.1.1.2.2.3h0q.1.1.1.2c0,.1.1.1.1.2,0,0,0,.1.1.1,0,.1.1.1.1.2h0c0,.1.1.2.1.2h0v.1c0,.1.1.1.1.2.1.2.2.4.3.61,0,.1.1.2.1.3v.1h0c0,.1.1.1.1.2s.1.2.1.2h0v.1c0,.1.1.2.1.3h0c0,.1.1.2.1.3s.1.2.1.3c.1.4.2.91.3,1.31v.4h0v.2c0,.1,0,.3.1.4v.2h0v2.62h0v.91h0c0,.1,0,.2-.1.3,0,.1,0,.2-.1.3,0,.1-.1.2-.1.4,0,.1-.1.2-.1.3s-.1.2-.1.3h0c0,.1-.1.2-.1.3-.1.3-.2.5-.3.81h0v.1c0,.1-.1.2-.1.3s-.1.2-.1.2h0v.1c0,.1-.1.2-.1.2-.1.2-.2.3-.3.5,0,.1-.1.1-.1.2-.2.3-.3.61-.5.81-.1.2-.3.4-.4.61l-.1.1s0,.1-.1.1c0,.1-.1.1-.1.2-.1.1-.2.2-.3.4l-.2.2c0,.1-.1.1-.2.2q-.1.1-.2.2c-.2.2-.4.3-.5.5,0,0-.1.1-.2.1q-.1.1-.2.2t-.2.1l-.1.1c-.4.3-.91.61-1.31.91-.1.1-.2.1-.3.2l-.1.1c-.1,0-.1.1-.2.1-.2.1-.4.2-.5.3,0,0-.1,0-.1.1,0,0-.1,0-.2.1-.1,0-.2.1-.4.1-.3.1-.71,0-.81-.4-.1-.3,0-.71.4-.81.1,0,.2-.1.3-.1h0s.1,0,.1-.1c0,0,.1,0,.1-.1.2-.1.3-.2.5-.2h0c.1,0,.1-.1.2-.1h.1c.1-.1.2-.1.3-.2.4-.2.81-.5,1.21-.81l.1-.1c.1,0,.1-.1.2-.1h0c.1,0,.1-.1.2-.1h0l.1-.1h0c.2-.1.3-.3.5-.5l.1-.1h0l.1-.1q.1-.1.2-.2c.1-.1.2-.2.3-.3h0l.1-.1h0l.1-.1c.1-.2.3-.4.4-.5.2-.2.3-.5.5-.81,0-.1.1-.1.1-.1.1-.1.2-.3.2-.5,0-.1.1-.1.1-.2h0v-.1c0-.1.1-.1.1-.2s.1-.2.1-.2v-.1h0c.1-.2.2-.5.3-.71,0-.1.1-.2.1-.3s.1-.2.1-.3.1-.2.1-.3.1-.2.1-.3,0-.2.1-.3v-1.31h0v-.5h0v-.2h0v-.71h0v-.1h0v-.91h0v-1.11c-.1-.4-.2-.81-.3-1.21,0-.1-.1-.2-.1-.3s-.1-.2-.1-.3h0c0-.1-.1-.2-.1-.2h0c0-.1-.1-.2-.1-.2,0-.1-.1-.1-.1-.2h0c0-.1-.1-.2-.1-.2-.1-.2-.2-.4-.3-.5,0-.1-.1-.1-.1-.2h0c0-.1-.1-.1-.1-.2h0c0-.1-.1-.1-.1-.2h0l-.1-.1h0c0-.1-.1-.1-.1-.2h0c-.1-.1-.1-.2-.2-.3,0-.1-.1-.1-.1-.2l-.1-.1c-.2-.2-.4-.4-.5-.61,0-.61,0-.71-.1-.81h0c0-.1-.1-.1-.2-.2h0l-.2-.2h0l-.2-.2q-.1-.1-.2-.2c-.1,0-.1-.1-.2-.1-2.12-1.72-4.84-2.72-7.57-2.72-6.56,0-11.81,5.25-11.81,11.81,0,4.84,2.93,9.19,7.57,11,.1,0,.2.1.2.1.1.1.3.1.4.1.3.1.5.5.4.81-.1.2-.3.4-.61.4Z"/>
        <path class="cls-3" d="M26.12,36.84h-.2q-.1,0-.2-.1c-.3-.1-.5-.4-.4-.81.1-.3.4-.5.81-.4h.2c.3.1.5.4.4.81-.1.3-.4.5-.61.5Z"/>
        <path class="cls-3" d="M26.83,36.94h-.4c-.3-.1-.5-.4-.5-.81.1-.3.4-.5.81-.5h.2c.3.1.61.4.5.71-.1.4-.3.61-.61.61Z"/>
        <path class="cls-3" d="M27.13,37.04q-.1,0,0,0c-.2,0-.3,0-.3-.1-.3-.1-.5-.4-.5-.71.1-.3.4-.5.71-.5h.1c.3.1.61.4.5.71,0,.4-.2.61-.5.61Z"/>
        <path class="cls-3" d="M27.54,37.14h-.5c-.3-.1-.61-.4-.5-.71.1-.3.4-.61.71-.5h.3c.3,0,.61.4.5.71.1.2-.2.5-.5.5Z"/>
        <path class="cls-3" d="M27.84,37.14h-.3c-.3,0-.61-.4-.5-.71,0-.3.4-.61.71-.5h.2c.3,0,.61.3.61.71-.1.3-.3.5-.71.5Z"/>
        <path class="cls-3" d="M28.24,37.25v-.61.61h-.4c-.3,0-.61-.4-.5-.71,0-.3.4-.61.71-.5h.4v.61l-.2.61Z"/>
        <path class="cls-3" d="M28.65,37.25h-.3c-.3,0-.61-.3-.61-.71,0-.3.3-.61.71-.61h.2c.3,0,.61.3.61.61,0,.4-.3.71-.61.71Z"/>
        <path class="cls-3" d="M29.05,37.25h-.4c-.3,0-.61-.3-.61-.71,0-.3.3-.61.71-.61h.2c.3,0,.61.3.61.61.1.4-.2.71-.5.71Z"/>
        <path class="cls-3" d="M29.66,37.25c-.3,0-.61-.3-.61-.61s.3-.61.61-.61h.2c.3,0,.61.2.71.61.1.4-.2.61-.61.71h-.2q0-.1-.1-.1h0Z"/>
        <path class="cls-3" d="M30.06,37.25c-.3,0-.61-.3-.61-.61s.3-.61.61-.61h.2c.3,0,.61.2.71.61,0,.3-.2.61-.61.71-.1-.1-.2-.1-.3-.1h0Z"/>
        <path class="cls-3" d="M30.36,37.25c-.3,0-.61-.2-.61-.61,0-.3.2-.61.61-.71h.4c.3,0,.71.2.71.5s-.2.71-.5.71h-.2c-.2,0-.3.1-.4.1.1,0,0,0,0,0Z"/>
        <path class="cls-3" d="M30.87,37.14c-.3,0-.61-.2-.61-.61,0-.3.2-.61.61-.71h.2c.3,0,.71.2.71.5s-.2.71-.5.71c-.2.1-.3.1-.4.1h0Z"/>
        <path class="cls-3" d="M31.17,37.14c-.3,0-.61-.2-.61-.5s.2-.71.5-.71h.3c.3-.1.71.2.71.5.1.3-.2.71-.5.71h-.2c0-.1-.1,0-.2,0,.1,0,0,0,0,0Z"/>
        <path class="cls-3" d="M31.57,37.04c-.3,0-.61-.2-.61-.5-.1-.3.2-.71.5-.71h.2c.3-.1.71.1.71.5s-.1.71-.5.71h-.3Z"/>
        <path class="cls-3" d="M31.88,36.94c-.3,0-.61-.2-.61-.5-.1-.3.2-.71.5-.71h.2c.3-.1.71.1.81.5.1.3-.1.71-.5.81h-.2q-.1-.1-.2-.1Z"/>
        <path class="cls-3" d="M32.18,36.94c-.3,0-.5-.2-.61-.5-.1-.3.1-.71.5-.71h.2c.3-.1.71.1.81.4.1.3-.1.71-.4.81-.1,0-.2,0-.2.1q-.2-.1-.3-.1Z"/>
        <path class="cls-3" d="M32.68,36.84c-.3,0-.5-.2-.61-.5-.1-.3.1-.71.4-.81h.1c.3-.1.71.1.81.4.1.3-.1.71-.4.81h-.1c-.1.1-.2.1-.2.1Z"/>
        <path class="cls-3" d="M33.19,36.64c-.3,0-.5-.2-.61-.4-.1-.3.1-.71.4-.81h.1c.3-.1.71.1.81.4.1.3-.1.71-.4.81q-.1,0-.2.1,0-.1-.1-.1Z"/>
        <path class="cls-3" d="M33.9,45.12h-2.22c-.3,0-.61-.3-.61-.61s.3-.61.61-.61h1.62v-7.17c-.1,0-.2.1-.3.1h-.1c-.1,0-.2,0-.2.1-.1,0-.2,0-.2.1h-6.16c-.2,0-.3-.1-.4-.1l-.2-.1h0c-.1,0-.2-.1-.3-.1v7.17h1.62c.3,0,.61.3.61.61s-.3.61-.61.61h-2.22c-.3,0-.61-.3-.61-.61v-8.68c0-.2.1-.4.3-.5.2-.1.4-.1.61-.1.1,0,.2.1.3.1.1.1.3.1.4.1s.2.1.3.1h.2c.1,0,.3.1.4.1h5.25q.1,0,.2-.1h.1c.1,0,.2-.1.4-.1h.1c.2-.1.3-.1.5-.2.2-.1.4,0,.61.1.2.1.3.3.3.5v8.68c.3.3,0,.61-.3.61Z"/>
        <path class="cls-3" d="M31.57,48.55h-4.54c-.3,0-.61-.3-.61-.61v-3.43c0-.3.3-.61.61-.61h4.54c.3,0,.61.3.61.61v3.43c.1.3-.2.61-.61.61ZM27.74,47.24h3.23v-2.12h-3.23v2.12Z"/>
        <path class="cls-3" d="M27.13,36.44h-.61v-13.12l-2.73-3.23c-.2-.3-.2-.71.1-.91.3-.2.71-.2.91.1l2.83,3.43c.1.1.1.3.1.4v13.32h-.61Z"/>
        <path class="cls-3" d="M31.57,37.04c-.3,0-.61-.3-.61-.61v-13.32c0-.1.1-.3.1-.4l2.83-3.43c.2-.3.61-.3.91-.1.3.2.3.61.1.91l-2.73,3.23v13.12c.1.3-.2.61-.61.61Z"/>
        <path class="cls-3" d="M48.63,36.14h0c-.2,0-.4-.1-.5-.2l-3.43-4.54c-.2-.3-.2-.71.1-.91.3-.2.71-.2.91.1l2.93,3.94,7.47-7.37c.2-.2.61-.2.91,0,.2.2.2.61,0,.91l-7.97,7.87c-.1.1-.2.2-.4.2Z"/>
        <path class="cls-3" d="M52.06,59.75c-.1,0-.3,0-.4-.1l-9.08-6.76c-.3-.2-.3-.61-.1-.91.2-.3.61-.3.91-.1l9.08,6.76.1.1c.2.2.2.61,0,.91-.2.1-.4.1-.5.1Z"/>
        <path class="cls-3" d="M14.62,66.62c-.3,0-.61-.3-.61-.61v-24.93c0-.3.3-.61.61-.61s.61.3.61.61v24.83c0,.4-.3.71-.61.71Z"/>
        <path class="cls-3" d="M19.16,66.62c-.3,0-.61-.3-.61-.61v-14.74c0-.3.3-.61.61-.61s.61.3.61.61v14.64c0,.4-.3.71-.61.71Z"/>
      </g>
    </g>
  </g>
</svg>