<?xml version="1.0" encoding="UTF-8"?>
<svg id="_1" data-name="1" xmlns="http://www.w3.org/2000/svg" viewBox="0 0 80 80">
  <defs>
    <style>
      .cls-1 {
        fill: none;
      }

      .cls-2 {
        fill: #00be76;
      }
    </style>
  </defs>
  <g id="C_-_66_Workforce_Business_human_leadership_management_organization_resources_teamwork" data-name="C - 66, Workforce, Business, human, leadership, management, organization, resources, teamwork">
    <g>
      <g>
        <path class="cls-1" d="M67.9,61.79v4.44h-18.17v-4.44c0-2.52,2.02-4.54,4.54-4.54h9.08c2.42,0,4.54,2.02,4.54,4.54ZM59.93,61.79v-2.22h-2.22v2.22h2.22Z"/>
        <path class="cls-1" d="M31.57,61.79v4.44H13.4v-4.44c0-2.52,2.02-4.54,4.54-4.54h9.08c2.52,0,4.54,2.02,4.54,4.54ZM23.69,61.79v-2.22h-2.22v2.22h2.22Z"/>
        <path class="cls-1" d="M45.19,57.25c2.52,0,4.54,2.02,4.54,4.54v4.44h-18.17v-4.44c0-2.52,2.02-4.54,4.54-4.54h9.08ZM41.76,61.79v-2.22h-2.22v2.22h2.22Z"/>
        <path class="cls-1" d="M22.48,45.95c2.52,0,4.54,2.02,4.54,4.64s-2.02,4.64-4.54,4.64-4.54-2.02-4.54-4.64,2.12-4.64,4.54-4.64Z"/>
        <path class="cls-1" d="M40.65,45.95c2.52,0,4.54,2.02,4.54,4.64s-2.02,4.64-4.54,4.64-4.54-2.02-4.54-4.64,2.02-4.64,4.54-4.64Z"/>
        <path class="cls-1" d="M58.82,45.95c2.52,0,4.54,2.02,4.54,4.64s-2.02,4.64-4.54,4.64-4.54-2.02-4.54-4.64,2.02-4.64,4.54-4.64Z"/>
        <path class="cls-1" d="M58.82,30.2c2.52,0,4.54,2.02,4.54,4.64s-2.02,4.64-4.54,4.64-4.54-2.02-4.54-4.64,2.02-4.64,4.54-4.64Z"/>
        <path class="cls-1" d="M40.65,30.2c2.52,0,4.54,2.02,4.54,4.64s-2.02,4.64-4.54,4.64-4.54-2.02-4.54-4.64,2.02-4.64,4.54-4.64Z"/>
        <path class="cls-1" d="M22.48,30.2c2.52,0,4.54,2.02,4.54,4.64s-2.02,4.64-4.54,4.64-4.54-2.02-4.54-4.64,2.12-4.64,4.54-4.64Z"/>
        <path class="cls-1" d="M40.65,12.13c2.52,0,4.54,2.02,4.54,4.64s-2.02,4.64-4.54,4.64-4.54-2.02-4.54-4.64,2.02-4.64,4.54-4.64Z"/>
        <rect class="cls-2" x="57.61" y="59.47" width="2.22" height="2.22"/>
        <rect class="cls-2" x="39.54" y="59.47" width="2.22" height="2.22"/>
        <rect class="cls-2" x="21.37" y="59.47" width="2.22" height="2.22"/>
      </g>
      <g>
        <path class="cls-2" d="M67.9,66.94h-18.17c-.3,0-.61-.3-.61-.61s.3-.61.61-.61h17.46v-3.84c0-2.12-1.72-3.84-3.94-3.84h-8.98c-2.22,0-3.94,1.72-3.94,3.94,0,.3-.3.61-.61.61s-.61-.3-.61-.61c0-2.83,2.32-5.15,5.25-5.15h8.98c2.83,0,5.15,2.32,5.15,5.15v4.54c0,.1-.3.4-.61.4Z"/>
        <path class="cls-2" d="M58.82,55.84c-2.83,0-5.15-2.32-5.15-5.25s2.32-5.25,5.15-5.25,5.15,2.32,5.15,5.25-2.32,5.25-5.15,5.25ZM58.82,46.55c-2.12,0-3.94,1.82-3.94,3.94s1.72,3.94,3.94,3.94,3.94-1.82,3.94-3.94-1.82-3.94-3.94-3.94Z"/>
        <path class="cls-2" d="M67.9,66.84H13.4c-.3,0-.61-.3-.61-.61s.3-.61.61-.61h54.4c.3,0,.61.3.61.61.1.3-.2.61-.5.61Z"/>
        <path class="cls-2" d="M49.74,66.94h-18.17c-.3,0-.61-.3-.61-.61s.3-.61.61-.61h17.46v-3.84c0-2.12-1.82-3.94-3.94-3.94h-8.98c-2.12,0-3.94,1.72-3.94,3.84,0,.3-.3.61-.61.61s-.61-.3-.61-.61c0-2.83,2.32-5.15,5.15-5.15h9.08c2.83,0,5.25,2.32,5.25,5.15v4.44c-.1.4-.4.71-.71.71Z"/>
        <path class="cls-2" d="M40.65,55.84c-2.83,0-5.15-2.32-5.15-5.25s2.32-5.25,5.15-5.25,5.15,2.32,5.15,5.25-2.32,5.25-5.15,5.25ZM40.65,46.55c-2.12,0-3.94,1.82-3.94,3.94s1.72,3.94,3.94,3.94,3.94-1.82,3.94-3.94-1.82-3.94-3.94-3.94Z"/>
        <path class="cls-2" d="M31.57,66.94H13.4c-.3,0-.61-.3-.61-.61v-4.44c0-2.83,2.32-5.15,5.25-5.15h8.98c2.83,0,5.15,2.32,5.15,5.15v4.54c0,.2-.2.5-.61.5ZM14.11,65.63h16.86v-3.84c0-2.12-1.72-3.84-3.94-3.84h-8.98c-2.22,0-3.94,1.72-3.94,3.94,0-.1,0,3.73,0,3.73Z"/>
        <path class="cls-2" d="M22.48,55.84c-2.83,0-5.15-2.32-5.15-5.25s2.32-5.25,5.15-5.25,5.15,2.32,5.15,5.25-2.22,5.25-5.15,5.25ZM22.48,46.55c-2.12,0-3.94,1.82-3.94,3.94s1.72,3.94,3.94,3.94,3.94-1.82,3.94-3.94-1.72-3.94-3.94-3.94Z"/>
        <path class="cls-2" d="M67.9,51.09c-.3,0-.61-.3-.61-.61v-4.54c0-2.12-1.72-3.84-3.94-3.84h-9.08c-2.22,0-3.94,1.72-3.94,3.94,0,.3-.3.61-.61.61s-.61-.3-.61-.61c0-2.83,2.32-5.15,5.25-5.15h8.98c2.83,0,5.15,2.32,5.15,5.15v4.54c0,.2-.3.5-.61.5Z"/>
        <path class="cls-2" d="M58.82,39.99c-2.83,0-5.15-2.32-5.15-5.25s2.32-5.25,5.15-5.25,5.15,2.32,5.15,5.25-2.32,5.25-5.15,5.25ZM58.82,30.81c-2.12,0-3.94,1.82-3.94,3.94s1.72,3.94,3.94,3.94,3.94-1.82,3.94-3.94c-.1-2.12-1.82-3.94-3.94-3.94Z"/>
        <path class="cls-2" d="M49.74,51.09c-.3,0-.61-.3-.61-.61v-4.44c0-2.12-1.82-3.94-3.94-3.94h-9.08c-2.12,0-3.94,1.72-3.94,3.84,0,.3-.3.61-.61.61s-.61-.3-.61-.61c0-2.83,2.32-5.15,5.15-5.15h9.08c2.83,0,5.25,2.32,5.25,5.15v4.44c-.1.4-.4.71-.71.71Z"/>
        <path class="cls-2" d="M40.65,39.99c-2.83,0-5.15-2.32-5.15-5.25s2.32-5.25,5.15-5.25,5.15,2.32,5.15,5.25-2.32,5.25-5.15,5.25ZM40.65,30.81c-2.12,0-3.94,1.82-3.94,3.94s1.72,3.94,3.94,3.94,3.94-1.82,3.94-3.94-1.82-3.94-3.94-3.94Z"/>
        <path class="cls-2" d="M31.57,51.09c-.3,0-.61-.3-.61-.61v-4.54c0-2.12-1.72-3.84-3.94-3.84h-8.98c-2.22,0-3.94,1.72-3.94,3.94v4.44c0,.3-.3.61-.61.61s-.61-.3-.61-.61v-4.44c0-2.83,2.32-5.15,5.25-5.15h8.88c2.83,0,5.15,2.32,5.15,5.15v4.54c0,.2-.2.5-.61.5Z"/>
        <path class="cls-2" d="M22.48,39.99c-2.83,0-5.15-2.32-5.15-5.25s2.32-5.25,5.15-5.25,5.15,2.32,5.15,5.25-2.22,5.25-5.15,5.25ZM22.48,30.81c-2.12,0-3.94,1.82-3.94,3.94s1.72,3.94,3.94,3.94,3.94-1.82,3.94-3.94-1.72-3.94-3.94-3.94Z"/>
        <path class="cls-2" d="M49.74,33.03c-.3,0-.61-.3-.61-.61v-4.44c0-2.12-1.82-3.94-3.94-3.94h-9.08c-2.12,0-3.94,1.72-3.94,3.84v4.54c0,.3-.3.61-.61.61s-.61-.3-.61-.61v-4.54c0-2.83,2.32-5.15,5.15-5.15h9.08c2.83,0,5.25,2.32,5.25,5.15v4.44c-.1.4-.4.71-.71.71Z"/>
        <path class="cls-2" d="M40.65,21.92c-2.83,0-5.15-2.32-5.15-5.25s2.32-5.25,5.15-5.25,5.15,2.32,5.15,5.25-2.32,5.25-5.15,5.25ZM40.65,12.74c-2.12,0-3.94,1.82-3.94,3.94s1.72,3.94,3.94,3.94,3.94-1.82,3.94-3.94-1.82-3.94-3.94-3.94Z"/>
      </g>
    </g>
  </g>
</svg>