<?xml version="1.0" encoding="UTF-8"?>
<svg id="_1" data-name="1" xmlns="http://www.w3.org/2000/svg" viewBox="0 0 80 80">
  <defs>
    <style>
      .cls-1 {
        fill: none;
      }

      .cls-2 {
        fill: #00be76;
      }
    </style>
  </defs>
  <g id="C_-_54_teamwork_Business_human_leadership_management" data-name="C - 54, teamwork, Business, human, leadership, management">
    <g>
      <g>
        <path class="cls-1" d="M28.52,36.82v4.54h-15.95v-4.54c0-2.52,2.02-4.54,4.54-4.54h6.76c1.31,0,2.52.61,3.43,1.51,0,0,.1.1.1.2s.1.1.1.2l.1.1h0c0,.1.1.1.1.2h0c0,.1.1.1.1.2h0c0,.1.1.1.1.2s.1.1.1.2.1.1.1.2,0,.1.1.2q0,.1.1.2v.3h0v.3h0v.5h0c.2-.1.2,0,.2,0ZM21.66,36.92v-2.22h-2.22v2.22h2.22Z"/>
        <path class="cls-1" d="M64.76,63.97v3.43h-13.63v-3.43c0-1.82,1.51-3.43,3.43-3.43h6.76c1.92,0,3.43,1.51,3.43,3.43Z"/>
        <path class="cls-1" d="M46.59,63.97v3.43h-13.53v-3.43c0-1.82,1.51-3.43,3.43-3.43h6.76c1.82,0,3.33,1.51,3.33,3.43Z"/>
        <path class="cls-1" d="M28.52,63.97v3.43h-13.63v-3.43c0-1.82,1.51-3.43,3.43-3.43h6.76c1.92,0,3.43,1.51,3.43,3.43Z"/>
        <path class="cls-1" d="M67.08,13.2v28.16H28.52v-4.74h0v-.5h0v-.3h0v-.3q0-.1-.1-.2t-.1-.2c0-.1-.1-.1-.1-.2s-.1-.1-.1-.2-.1-.1-.1-.2h0c0-.1-.1-.1-.1-.2h0c0-.1-.1-.1-.1-.2h0l-.1-.1c0-.1-.1-.1-.1-.2s-.1-.1-.1-.2V13.2h39.57Z"/>
        <path class="cls-1" d="M58,50.45c1.92,0,3.43,1.51,3.43,3.33s-1.51,3.33-3.43,3.33-3.43-1.51-3.43-3.33,1.51-3.33,3.43-3.33Z"/>
        <path class="cls-1" d="M39.83,50.45c1.92,0,3.43,1.51,3.43,3.33s-1.51,3.33-3.43,3.33-3.43-1.51-3.43-3.33,1.51-3.33,3.43-3.33Z"/>
        <path class="cls-1" d="M21.66,50.45c1.92,0,3.43,1.51,3.43,3.33s-1.51,3.33-3.43,3.33-3.43-1.51-3.43-3.33c.1-1.82,1.61-3.33,3.43-3.33Z"/>
        <path class="cls-1" d="M20.55,21.08c2.52,0,4.54,2.02,4.54,4.54s-2.02,4.54-4.54,4.54-4.54-2.02-4.54-4.54,2.02-4.54,4.54-4.54Z"/>
        <rect class="cls-2" x="19.34" y="34.7" width="2.22" height="2.22"/>
      </g>
      <g>
        <path class="cls-2" d="M67.08,41.97H28.52c-.3,0-.61-.3-.61-.61s.3-.61.61-.61h37.95V13.81H28.02v19.88c0,.1.1.1.1.2s.1.1.1.2c.2.3.1.71-.2.91-.3.2-.71.1-.91-.2l-.1-.1-.1-.1-.1-.1c-.1-.1-.2-.3-.2-.4V13.2c0-.3.3-.61.61-.61h39.67c.3,0,.61.3.61.61v28.16c.2.4-.1.61-.4.61Z"/>
        <path class="cls-2" d="M27.82,35.21c-.2,0-.4-.1-.5-.3l-.1-.1c-.2-.3-.1-.71.2-.91.3-.2.71-.1.91.2,0,.1.1.1.1.2.2.3.1.71-.2.91-.2-.1-.3,0-.4,0Z"/>
        <path class="cls-2" d="M27.92,35.31c-.2,0-.4-.1-.5-.3l-.1-.1c-.2-.3-.1-.71.2-.91.3-.2.71-.1.91.2,0,.1.1.1.1.2.2.3.1.71-.2.91h-.4Z"/>
        <path class="cls-2" d="M28.12,35.71c-.2,0-.5-.1-.61-.4,0,0,0-.1-.1-.1,0,0,0-.1-.1-.1-.2-.3-.1-.71.2-.81.3-.2.71-.1.81.2,0,.1.1.1.1.2s.1.1.1.2c.1.3,0,.71-.3.81.1-.1,0,0-.1,0Z"/>
        <path class="cls-2" d="M28.22,36.01c-.3,0-.5-.2-.61-.4v-.1c-.1-.3,0-.71.4-.81.3-.1.71,0,.81.4q0,.1.1.2c.1.3-.1.71-.4.81-.1-.1-.2-.1-.3-.1Z"/>
        <path class="cls-2" d="M28.42,36.52c-.3,0-.61-.2-.61-.5h0v-.1c-.1-.3.1-.71.4-.81.3-.1.71.1.81.4v.2h0v.1c.1.3-.2.71-.5.71h-.1Z"/>
        <path class="cls-2" d="M28.42,36.82c-.3,0-.61-.2-.61-.5v-.1h0v-.1c-.1-.3.1-.71.5-.81.3-.1.71.1.81.5v.4c0,.2-.2.5-.71.61.1,0,0,0,0,0Z"/>
        <path class="cls-2" d="M28.42,37.02c-.3,0-.61-.2-.61-.61v-.1h0c-.1-.3.2-.71.5-.71.3-.1.71.2.71.5v.3c.1.3-.1.61-.61.61q.1,0,0,0Z"/>
        <path class="cls-2" d="M28.52,37.22c-.3,0-.61-.3-.61-.61v-.1c0-.3.2-.61.61-.71.3,0,.61.2.71.61v.2c-.1.3-.4.61-.71.61h0Z"/>
        <path class="cls-2" d="M28.52,37.53c-.3,0-.61-.3-.61-.61v-.2c0-.3.2-.61.61-.71.3,0,.61.2.71.61v.2c-.1.4-.4.71-.71.71Z"/>
        <path class="cls-2" d="M28.52,41.97h-15.95c-.3,0-.61-.3-.61-.61v-4.54c0-2.83,2.32-5.15,5.15-5.15h6.76c1.51,0,2.93.61,3.84,1.72,0,.1.1.1.1.2s.1.1.1.2.1.1.1.2h0c0,.1.1.1.1.2h0c0,.1.1.1.1.2h0c0,.1.1.1.1.2s.1.1.1.2.1.2.1.3,0,.1.1.2c0,.1.1.2.1.2v.3h0v.2h0v.2h0v5.45c.4.1.1.3-.2.3ZM13.28,40.76h14.64v-3.94h0v-.1h0v-.1h0v-.3h0v-.1q0-.1-.1-.2t-.1-.1-.1-.2h0s0-.1-.1-.1c0,0,0-.1-.1-.1h0l-.1-.1h0s0-.1-.1-.1h0l-.1-.1h0l-.1-.1h0l-.1-.1c-.71-.81-1.82-1.31-2.93-1.31h-6.86c-2.12,0-3.94,1.72-3.94,3.94.1-.81.1,3.13.1,3.13Z"/>
        <path class="cls-2" d="M20.55,30.76c-2.83,0-5.15-2.32-5.15-5.15s2.32-5.15,5.15-5.15,5.15,2.32,5.15,5.15-2.32,5.15-5.15,5.15ZM20.55,21.68c-2.12,0-3.94,1.72-3.94,3.84s1.72,3.83,3.94,3.83,3.94-1.72,3.94-3.83-1.82-3.84-3.94-3.84Z"/>
        <path class="cls-2" d="M62.54,37.53c-.3,0-.61-.3-.61-.61v-18.57h-30.08c-.3,0-.61-.3-.61-.61s.3-.61.61-.61h30.68c.3,0,.61.3.61.61v19.18c0,.3-.3.61-.61.61Z"/>
        <path class="cls-2" d="M55.68,34.8h-22.61c-.3,0-.61-.3-.61-.61s.3-.61.61-.61h22.71c.3,0,.61.3.61.61-.1.3-.3.61-.71.61Z"/>
        <path class="cls-2" d="M55.68,30.76h-22.61c-.3,0-.61-.3-.61-.61s.3-.61.61-.61h22.71c.3,0,.61.3.61.61-.1.3-.3.61-.71.61Z"/>
        <path class="cls-2" d="M42.05,26.63h-9.08c-.3,0-.61-.3-.61-.61s.3-.61.61-.61h9.08c.3,0,.61.3.61.61.1.3-.2.61-.61.61Z"/>
        <path class="cls-2" d="M28.52,68.01h-13.63c-.3,0-.61-.3-.61-.61v-3.43c0-2.22,1.82-4.04,4.04-4.04h6.76c2.22,0,4.04,1.82,4.04,4.04v3.43c0,.3-.3.61-.61.61ZM15.5,66.7h12.31v-2.73c0-1.51-1.21-2.73-2.73-2.73h-6.76c-1.51,0-2.73,1.21-2.73,2.73-.1,0-.1,2.73-.1,2.73Z"/>
        <path class="cls-2" d="M46.59,68.01h-13.53c-.3,0-.61-.3-.61-.61v-3.43c0-2.22,1.82-4.04,4.04-4.04h6.76c2.22,0,4.04,1.82,4.04,4.04v3.43c0,.3-.3.61-.71.61ZM33.67,66.7h12.31v-2.73c0-1.51-1.21-2.73-2.72-2.73h-6.76c-1.51,0-2.73,1.21-2.73,2.73l-.1,2.73h0Z"/>
        <path class="cls-2" d="M64.76,68.01h-13.63c-.3,0-.61-.3-.61-.61v-3.43c0-2.22,1.82-4.04,4.04-4.04h6.76c2.22,0,4.04,1.82,4.04,4.04v3.43c0,.3-.2.61-.61.61ZM51.84,66.7h12.31v-2.73c0-1.51-1.21-2.73-2.73-2.73h-6.76c-1.51,0-2.72,1.21-2.72,2.73l-.1,2.73h0Z"/>
        <path class="cls-2" d="M21.66,57.82c-2.22,0-4.04-1.82-4.04-4.04s1.82-4.04,4.04-4.04,4.04,1.82,4.04,4.04-1.82,4.04-4.04,4.04ZM21.66,51.05c-1.51,0-2.73,1.21-2.73,2.73s1.21,2.73,2.73,2.73,2.73-1.21,2.73-2.73c.1-1.51-1.21-2.73-2.73-2.73Z"/>
        <path class="cls-2" d="M39.83,57.82c-2.22,0-4.04-1.82-4.04-4.04s1.82-4.04,4.04-4.04,4.04,1.82,4.04,4.04-1.82,4.04-4.04,4.04ZM39.83,51.05c-1.51,0-2.73,1.21-2.73,2.73s1.21,2.73,2.73,2.73,2.73-1.21,2.73-2.73-1.21-2.73-2.73-2.73Z"/>
        <path class="cls-2" d="M58,57.82c-2.22,0-4.04-1.82-4.04-4.04s1.82-4.04,4.04-4.04,4.04,1.82,4.04,4.04c-.1,2.22-1.82,4.04-4.04,4.04ZM58,51.05c-1.51,0-2.73,1.21-2.73,2.73s1.21,2.73,2.73,2.73,2.73-1.21,2.73-2.73-1.21-2.73-2.73-2.73Z"/>
      </g>
    </g>
  </g>
</svg>