<?xml version="1.0" encoding="UTF-8"?>
<svg id="_5" data-name="5" xmlns="http://www.w3.org/2000/svg" viewBox="0 0 80 80">
  <defs>
    <style>
      .cls-1 {
        fill: none;
      }

      .cls-2 {
        fill: #00be76;
      }
    </style>
  </defs>
  <g id="C_-_61_Diagram_features_human_people_personal_profile_user" data-name="C - 61, Diagram, features, human, people, personal, profile, user">
    <g>
      <g>
        <path class="cls-1" d="M60.04,39.29v1.1c0,11.15-9.04,20.18-20.28,20.18-9.24,0-17.07-6.13-19.48-14.56-.5-1.81-.8-3.72-.8-5.62,0-10.75,8.54-19.58,19.18-20.18h1.1c5.22,0,9.94,1.91,13.56,5.12,3.92,3.51,6.43,8.44,6.73,13.96ZM49.2,51.84v-5.22c0-2.31-1.91-4.12-4.12-4.12h-10.54c-2.31,0-4.22,1.91-4.22,4.12v5.22h18.88ZM44.98,34.17c0-2.91-2.31-5.22-5.22-5.22s-5.22,2.31-5.22,5.22,2.31,5.22,5.22,5.22,5.22-2.41,5.22-5.22Z"/>
        <path class="cls-1" d="M40.76,47.62h-2.11v2.11h2.11v-2.11h0ZM40.76,46.62v-2.11h-2.11v2.11h2.11ZM49.2,46.62v5.22h-18.88v-5.22c0-2.31,1.91-4.12,4.22-4.12h10.54c2.21,0,4.12,1.81,4.12,4.12Z"/>
        <path class="cls-1" d="M39.76,28.95c2.91,0,5.22,2.31,5.22,5.22s-2.31,5.22-5.22,5.22-5.22-2.31-5.22-5.22,2.41-5.22,5.22-5.22Z"/>
        <path class="cls-1" d="M66.77,39.29h-6.73c-.3-5.52-2.81-10.44-6.73-13.96l4.52-5.02c5.22,4.72,8.64,11.45,8.94,18.98Z"/>
        <path class="cls-1" d="M57.73,20.31l-4.52,5.02c-3.62-3.21-8.33-5.12-13.56-5.12h-1.1v-6.73h1.1c7.03,0,13.36,2.51,18.08,6.83Z"/>
        <path class="cls-1" d="M66.77,39.29v1.1c0,14.86-12.15,26.91-27.11,26.91-12.25,0-22.59-8.03-25.91-19.18l6.43-2.21c2.41,8.44,10.24,14.56,19.48,14.56,11.25,0,20.29-9.04,20.29-20.18v-1.1h0l6.83.1Z"/>
        <path class="cls-1" d="M38.65,13.48v6.73c-10.75.6-19.18,9.44-19.18,20.18,0,1.91.3,3.82.8,5.62l-6.43,2.21c-.7-2.51-1.1-5.12-1.1-7.83-.1-14.46,11.45-26.31,25.91-26.91Z"/>
        <rect class="cls-2" x="38.75" y="47.62" width="2.11" height="2.11"/>
        <rect class="cls-2" x="38.75" y="44.51" width="2.11" height="2.11"/>
      </g>
      <g>
        <path class="cls-2" d="M39.76,67.91c-6.03,0-11.85-1.91-16.67-5.52-4.62-3.51-8.13-8.44-9.84-14.06-.8-2.61-1.2-5.22-1.2-7.93,0-7.13,2.71-13.96,7.73-19.08,4.92-5.12,11.65-8.13,18.78-8.43h1.1c6.83,0,13.36,2.51,18.38,7.03,2.71,2.41,4.92,5.32,6.53,8.64,1.61,3.41,2.51,7.03,2.71,10.75v1.1c0,7.33-2.91,14.26-8.13,19.48-5.02,5.12-11.95,8.03-19.38,8.03ZM39.76,13.98h-1.1c-14.26.6-25.41,12.15-25.41,26.31,0,2.61.4,5.12,1.1,7.63,3.31,11.05,13.76,18.78,25.41,18.78,14.56.1,26.51-11.75,26.51-26.31v-1.1c-.3-7.23-3.41-13.76-8.84-18.58-4.92-4.32-11.15-6.73-17.67-6.73Z"/>
        <path class="cls-2" d="M39.76,61.18c-4.62,0-9.04-1.51-12.65-4.22-3.51-2.71-6.13-6.53-7.43-10.74-.5-1.91-.8-3.82-.8-5.72,0-11.05,8.64-20.18,19.68-20.79h1.21c5.12,0,10.04,1.91,13.96,5.32,4.12,3.72,6.63,8.84,6.93,14.36v1.21c0,11.25-9.34,20.59-20.89,20.59ZM39.76,20.81h-1.1c-10.44.5-18.58,9.14-18.58,19.58,0,1.81.3,3.72.8,5.42,2.31,8.33,10.14,14.16,18.88,14.16,10.85,0,19.68-8.84,19.68-19.58v-1.1c-.3-5.22-2.61-10.04-6.53-13.56-3.62-3.21-8.33-4.92-13.16-4.92Z"/>
        <path class="cls-2" d="M38.65,20.81c-.3,0-.6-.3-.6-.6v-6.73c0-.3.3-.6.6-.6s.6.3.6.6v6.73c0,.3-.3.6-.6.6h0Z"/>
        <path class="cls-2" d="M53.32,25.93c-.1,0-.3,0-.4-.1-.2-.2-.3-.6,0-.8l4.52-5.02h0c.2-.2.6-.2.8,0,.2.2.2.6,0,.8l-4.52,5.02c-.1,0-.3.1-.4.1Z"/>
        <path class="cls-2" d="M66.77,39.89h-6.73c-.3,0-.6-.3-.6-.6s.3-.6.6-.6h6.73c.3,0,.6.3.6.6s-.3.6-.6.6Z"/>
        <path class="cls-2" d="M13.85,48.73c-.3,0-.6-.3-.6-.6s.2-.5.4-.5l6.43-2.21c.3-.1.6.1.7.4.1.3-.1.6-.4.7l-6.43,2.21h-.1Z"/>
        <path class="cls-2" d="M49.2,52.44h-18.88c-.3,0-.6-.3-.6-.6v-5.22c0-2.61,2.11-4.72,4.72-4.72h10.54c2.61,0,4.72,2.11,4.72,4.72v5.22c0,.3-.2.6-.5.6ZM30.92,51.24h17.67v-4.72c0-1.91-1.61-3.51-3.51-3.51h-10.54c-2.01,0-3.62,1.61-3.62,3.61v4.62Z"/>
        <path class="cls-2" d="M39.76,39.89c-3.21,0-5.82-2.61-5.82-5.72s2.61-5.72,5.82-5.72,5.82,2.61,5.82,5.72-2.61,5.72-5.82,5.72ZM39.76,29.55c-2.51,0-4.62,2.11-4.62,4.62s2.11,4.62,4.62,4.62,4.62-2.11,4.62-4.62-2.01-4.62-4.62-4.62Z"/>
        <path class="cls-2" d="M54.42,39.89c-.3,0-.6-.3-.6-.6,0-7.73-6.33-13.96-14.06-13.96s-14.06,6.33-14.06,13.96c0,.3-.3.6-.6.6s-.6-.3-.6-.6c0-8.33,6.83-15.16,15.16-15.16s15.16,6.83,15.16,15.16c.1.3-.1.6-.4.6Z"/>
      </g>
    </g>
  </g>
</svg>