<?xml version="1.0" encoding="UTF-8"?>
<svg id="_1" data-name="1" xmlns="http://www.w3.org/2000/svg" viewBox="0 0 80 80">
  <defs>
    <style>
      .cls-1 {
        fill: none;
      }

      .cls-2 {
        fill: #00be76;
      }
    </style>
  </defs>
  <g id="C_-_62_Client_User_costs_employee_finance_money_person" data-name="C - 62, Client, User, costs, employee, finance, money, person">
    <g>
      <g>
        <path class="cls-1" d="M23.49,53.89c1.21-3.03,4.44-4.24,13.02-8.78l9.08,7.87,9.08-7.87c15.04,8.07,13.63,5.75,13.63,21.4H22.89c0-6.86-.3-10.3.61-12.62Z"/>
        <path class="cls-1" d="M57,25.83c0,5.45-4.04,15.14-11.2,15.14-5.65,0-9.29-5.96-10.6-11.2-.4-1.41-.5-2.83-.5-3.94,0-5.75,5.05-10.4,11.2-10.4s11.1,4.64,11.1,10.4Z"/>
        <path class="cls-2" d="M29.55,39.15c.61.71.91,1.61.91,2.62,0,1.21-.4,2.22-1.11,3.03-.71.81-1.82,1.31-3.13,1.51v1.92h-1.51v-1.82c-1.11-.1-2.02-.61-2.83-1.31-.71-.71-1.21-1.72-1.41-3.03l2.62-.3c.1.5.3,1.01.61,1.41.3.4.61.71,1.01.81v-4.24c-1.31-.4-2.32-.91-2.93-1.72-.61-.81-.91-1.72-.91-2.73,0-1.11.3-2.02,1.01-2.72.71-.71,1.61-1.21,2.73-1.31v-1.41h1.51v1.41c1.11.1,2.02.5,2.62,1.11.61.61,1.01,1.41,1.21,2.42l-2.52.3c-.2-.81-.61-1.31-1.21-1.62v3.94c1.61.5,2.73,1.01,3.33,1.72ZM27.93,42.18c0-.4-.1-.81-.4-1.11-.3-.3-.71-.61-1.31-.71v3.94c.5-.1.91-.3,1.21-.71.4-.5.5-.91.5-1.41ZM24.8,36.93v-3.53c-.4.1-.71.4-.91.71-.2.3-.3.71-.3,1.11s.1.71.3,1.01c.1.3.5.61.91.71Z"/>
      </g>
      <g>
        <path class="cls-2" d="M68.21,67.11H22.89c-.3,0-.61-.3-.61-.61v-3.84c-.1-4.54-.1-7.07.71-8.98,1.11-2.72,3.63-4.04,9.29-7.07,1.21-.61,2.52-1.31,4.04-2.12.2-.1.5-.1.71.1l8.68,7.57,8.68-7.57c.2-.2.5-.2.71-.1,1.41.81,2.73,1.41,3.84,2.02,5.05,2.62,7.57,4.04,8.88,6.16,1.31,2.12,1.31,4.84,1.21,10.09v3.74c-.2.4-.5.61-.81.61ZM23.49,65.9h44.11v-3.13c.1-5.05.1-7.67-1.01-9.49-1.11-1.82-3.53-3.13-8.48-5.65-1.01-.5-2.22-1.11-3.43-1.82l-8.68,7.67c-.2.2-.61.2-.81,0l-8.78-7.67c-1.31.71-2.52,1.31-3.63,1.92-5.55,2.93-7.77,4.14-8.68,6.36-.71,1.82-.71,4.34-.61,8.58v3.23Z"/>
        <path class="cls-2" d="M45.8,41.58c-2.73,0-5.35-1.31-7.47-3.83-1.72-2.02-3.03-4.84-3.84-7.77-.4-1.41-.61-2.93-.61-4.14,0-6.06,5.35-11.1,11.81-11.1s11.81,4.95,11.81,11.1c.1,5.55-3.94,15.75-11.71,15.75ZM45.8,16.04c-5.85,0-10.6,4.44-10.6,9.79,0,1.11.2,2.42.5,3.84,1.31,5.35,4.95,10.7,9.99,10.7,3.73,0,6.26-2.83,7.77-5.25,1.72-2.83,2.83-6.46,2.83-9.29,0-5.35-4.74-9.79-10.5-9.79Z"/>
        <path class="cls-2" d="M23.59,54.6h-.3c-2.83-.91-5.45-2.62-7.27-5.05-1.92-2.42-2.83-5.45-2.83-8.48,0-7.77,6.36-14.13,14.23-14.13,2.93,0,5.65.81,8.07,2.52.3.2.4.61.2.91-.2.3-.61.4-.91.2-2.12-1.51-4.64-2.22-7.37-2.22-7.17,0-12.92,5.75-12.92,12.92,0,5.65,3.73,10.7,9.18,12.31h0c.3.1.5.5.4.81,0,0-.2.2-.5.2Z"/>
      </g>
    </g>
  </g>
</svg>