<?xml version="1.0" encoding="UTF-8"?>
<svg id="_1" data-name="1" xmlns="http://www.w3.org/2000/svg" viewBox="0 0 80 80">
  <defs>
    <style>
      .cls-1 {
        fill: none;
      }

      .cls-2 {
        fill: #00be76;
      }
    </style>
  </defs>
  <g id="C_-_55_growth_Chart_flowchart_graph_increase_progress" data-name="C - 55, growth, Chart, flowchart, graph, increase, progress">
    <g>
      <g>
        <polygon class="cls-1" points="63 33.84 63 56.35 51.7 56.35 51.7 39.59 51.7 33.84 63 33.84"/>
        <polygon class="cls-1" points="39.18 43.03 39.18 56.35 26.67 56.35 26.67 45.35 26.67 43.03 39.18 43.03"/>
        <polygon class="cls-1" points="51.7 39.59 51.7 56.35 39.18 56.35 39.18 43.03 39.18 39.59 51.7 39.59"/>
        <rect class="cls-1" x="15.36" y="45.35" width="11.3" height="11"/>
      </g>
      <g>
        <path class="cls-2" d="M63,56.95c-.3,0-.61-.3-.61-.61v-21.9h-10.09v5.15c0,.3-.3.61-.61.61s-.61-.3-.61-.61v-5.75c0-.3.3-.61.61-.61h11.3c.3,0,.61.3.61.61v22.61c0,.3-.3.5-.61.5Z"/>
        <path class="cls-2" d="M51.7,56.95c-.3,0-.61-.3-.61-.61v-16.15h-11.3v2.83c0,.3-.3.61-.61.61s-.61-.3-.61-.61v-3.43c0-.3.3-.61.61-.61h12.52c.3,0,.61.3.61.61v16.75c0,.4-.3.61-.61.61Z"/>
        <path class="cls-2" d="M39.18,56.95c-.3,0-.61-.3-.61-.61v-12.72h-11.2v1.62c0,.3-.3.61-.61.61s-.61-.3-.61-.61v-2.32c0-.3.3-.61.61-.61h12.52c.3,0,.61.3.61.61v13.32c-.1.5-.4.71-.71.71Z"/>
        <path class="cls-2" d="M26.67,56.95c-.3,0-.61-.3-.61-.61v-10.4h-10.09v10.4c0,.3-.3.61-.61.61s-.61-.3-.61-.61v-11c0-.3.3-.61.61-.61h11.3c.3,0,.61.3.61.61v11c.1.4-.2.61-.61.61Z"/>
        <path class="cls-2" d="M66.44,56.95H11.93c-.3,0-.61-.3-.61-.61s.3-.61.61-.61h54.4c.3,0,.61.3.61.61.1.4-.2.61-.5.61Z"/>
        <path class="cls-2" d="M14.25,42.92c-.2,0-.4-.1-.5-.2-.2-.3-.2-.71.1-.91l5.65-4.54c.1-.1.3-.2.5-.1l11,1.62,6.56-6.56c.2-.2.4-.2.71-.1l6.36,2.62,11-11.51c.2-.2.61-.3.91,0,.2.2.3.61,0,.91l-11.2,11.81c-.2.2-.5.2-.71.1l-6.46-2.62-6.46,6.46c-.1.1-.3.2-.5.2l-11.1-1.62-5.45,4.34c-.1,0-.3.1-.4.1Z"/>
      </g>
    </g>
  </g>
</svg>