<?xml version="1.0" encoding="UTF-8"?>
<svg id="_1" data-name="1" xmlns="http://www.w3.org/2000/svg" viewBox="0 0 80 80">
  <defs>
    <style>
      .cls-1 {
        fill: none;
      }

      .cls-2 {
        fill: #00be76;
      }
    </style>
  </defs>
  <g id="C_-_73_Computer_desk_desktop_monitor_office_place_table" data-name="C - 73, Computer, desk, desktop, monitor, office, place, table">
    <g>
      <g>
        <path class="cls-1" d="M44.3,27.91v2.22c0,.61-.5,1.11-1.11,1.11h-18.07c-.61,0-1.11-.5-1.11-1.11v-2.22h20.29Z"/>
        <path class="cls-1" d="M44.3,16.6v11.3h-20.39v-11.3c0-.61.5-1.11,1.11-1.11h18.17c.61,0,1.11.5,1.11,1.11Z"/>
        <rect class="cls-1" x="15.94" y="27.91" width="4.34" height="7.87"/>
        <path class="cls-1" d="M62.37,20.64c1.21,0,2.22.71,2.22,1.61,0,.71-.71,1.31-1.61,1.51-.2,0-.4.1-.71.1-1.21,0-2.22-.71-2.22-1.62.1-.91,1.11-1.61,2.32-1.61Z"/>
        <polygon class="cls-1" points="55.61 16.6 55.61 18.93 47.63 21.15 47.63 16.6 55.61 16.6"/>
        <polygon class="cls-1" points="62.37 31.34 62.37 35.78 54.5 35.78 54.5 31.34 60.85 31.34 62.37 31.34"/>
        <rect class="cls-1" x="26.13" y="44.87" width="29.47" height="15.75"/>
        <path class="cls-1" d="M60.15,40.32v24.83H21.59v-24.83h38.56ZM55.61,60.61v-15.75h-29.47v15.75h29.47Z"/>
        <polygon class="cls-1" points="68.12 35.78 68.12 40.32 60.15 40.32 21.59 40.32 13.62 40.32 13.62 35.78 15.94 35.78 20.28 35.78 28.35 35.78 39.76 35.78 47.63 35.78 54.5 35.78 62.37 35.78 68.12 35.78"/>
      </g>
      <g>
        <path class="cls-2" d="M68.12,40.93h-7.97c-.3,0-.61-.3-.61-.61s.3-.61.61-.61h7.27v-3.23h-5.05c-.3,0-.61-.3-.61-.61s.3-.61.61-.61h5.65c.3,0,.61.3.61.61v4.54c.1.2-.2.5-.5.5Z"/>
        <path class="cls-2" d="M54.5,36.39h-14.74c-.3,0-.61-.3-.61-.61s.3-.61.61-.61h14.74c.3,0,.61.3.61.61,0,.4-.3.61-.61.61Z"/>
        <path class="cls-2" d="M28.35,36.39h-8.07c-.3,0-.61-.3-.61-.61s.3-.61.61-.61h8.07c.3,0,.61.3.61.61.1.4-.2.61-.61.61Z"/>
        <path class="cls-2" d="M21.59,40.93h-7.97c-.3,0-.61-.3-.61-.61v-4.54c0-.3.3-.61.61-.61h2.22c.3,0,.61.3.61.61s-.3.61-.61.61h-1.62v3.23h7.27c.3,0,.61.3.61.61.1.4-.1.71-.5.71Z"/>
        <path class="cls-2" d="M60.15,65.76H21.59c-.3,0-.61-.3-.61-.61v-24.83c0-.3.3-.61.61-.61h38.56c.3,0,.61.3.61.61v24.83c0,.3-.3.61-.61.61ZM22.2,64.55h37.35v-23.62H22.2v23.62Z"/>
        <path class="cls-2" d="M55.61,61.22h-29.47c-.3,0-.61-.3-.61-.61v-15.75c0-.3.3-.61.61-.61h29.47c.3,0,.61.3.61.61v15.75c0,.4-.3.61-.61.61ZM26.74,60.01h28.16v-14.54h-28.16v14.54Z"/>
        <path class="cls-2" d="M43.09,31.95h-5.65c-.3,0-.61-.3-.61-.61s.3-.61.61-.61h5.65c.3,0,.5-.2.5-.5v-13.63c0-.3-.2-.5-.5-.5h-18.17c-.3,0-.5.2-.5.5v13.53c0,.3.2.5.5.5h5.65c.3,0,.61.3.61.61s-.3.61-.61.61h-5.65c-1.01,0-1.72-.81-1.72-1.72v-13.53c0-1.01.81-1.72,1.72-1.72h18.17c1.01,0,1.72.81,1.72,1.72v13.53c.1,1.01-.71,1.82-1.72,1.82Z"/>
        <path class="cls-2" d="M39.76,36.39h-11.41c-.2,0-.4-.1-.5-.3-.1-.2-.1-.4,0-.61l2.22-4.44c.1-.2.3-.3.61-.3h6.76c.2,0,.5.1.61.3l2.22,4.44c.1.2.1.4,0,.61-.1.2-.3.3-.5.3ZM29.46,35.18h9.29l-1.62-3.23h-6.06l-1.62,3.23Z"/>
        <path class="cls-2" d="M44.3,28.52h-20.39c-.3,0-.61-.3-.61-.61s.3-.61.61-.61h20.39c.3,0,.61.3.61.61,0,.4-.3.61-.61.61Z"/>
        <path class="cls-2" d="M62.37,36.39h-7.87c-.3,0-.61-.3-.61-.61v-4.44c0-.3.3-.61.61-.61h7.97c.3,0,.61.3.61.61v4.44c0,.4-.3.61-.71.61ZM55.1,35.18h6.66v-3.23h-6.66v3.23Z"/>
        <path class="cls-2" d="M62.37,24.58c-1.62,0-2.93-1.01-2.93-2.22,0-1.31,1.31-2.22,2.93-2.22s2.93,1.01,2.93,2.22c0,1.01-.81,1.92-2.12,2.22-.2-.1-.5,0-.81,0ZM62.37,21.25c-.91,0-1.62.5-1.62,1.01s.71,1.01,1.62,1.01c.2,0,.4,0,.5-.1.61-.1,1.11-.5,1.11-.91.1-.4-.61-1.01-1.61-1.01Z"/>
        <path class="cls-2" d="M61.16,21.15c-.1,0-.2,0-.4-.1l-5.55-3.84c-.3-.2-.4-.61-.2-.91.2-.3.61-.4.91-.2l5.55,3.83c.3.2.4.61.2.91-.1.2-.3.3-.5.3Z"/>
        <path class="cls-2" d="M60.85,31.95h-.2c-.3-.1-.5-.4-.4-.81l2.22-7.47c.1-.3.4-.5.81-.4.3.1.5.4.4.81l-2.22,7.47c-.1.2-.4.4-.61.4Z"/>
        <path class="cls-2" d="M47.63,21.75c-.1,0-.3,0-.4-.1-.2-.1-.2-.3-.2-.5v-4.54c0-.3.3-.61.61-.61h7.97c.3,0,.61.3.61.61v2.32c0,.3-.2.5-.5.61l-7.97,2.22h-.1ZM48.34,17.31v3.03l6.66-1.82v-1.21h-6.66Z"/>
        <path class="cls-2" d="M20.28,36.39h-4.34c-.3,0-.61-.3-.61-.61v-7.87c0-.3.3-.61.61-.61h4.34c.3,0,.61.3.61.61v7.87c.1.4-.2.61-.61.61ZM16.55,35.18h3.13v-6.66h-3.13v6.66Z"/>
        <path class="cls-2" d="M47.63,36.39c-.3,0-.61-.3-.61-.61v-7.87c0-.3.3-.61.61-.61s.61.3.61.61v7.87c.1.4-.2.61-.61.61Z"/>
      </g>
    </g>
  </g>
</svg>