<?xml version="1.0" encoding="UTF-8"?>
<svg id="_1" data-name="1" xmlns="http://www.w3.org/2000/svg" viewBox="0 0 80 80">
  <defs>
    <style>
      .cls-1 {
        fill: none;
      }

      .cls-2 {
        fill: #00be76;
      }
    </style>
  </defs>
  <g id="C_-_59_Brainstorming_group_idea_solution_team_think_thinking" data-name="C - 59, Brainstorming, group, idea, solution, team, think, thinking">
    <g>
      <g>
        <path class="cls-1" d="M30.52,62.97v3.43h-13.63v-3.43c0-1.82,1.51-3.43,3.43-3.43h6.76c1.92,0,3.43,1.51,3.43,3.43Z"/>
        <path class="cls-1" d="M66.75,62.97v3.43h-13.63v-3.43c0-1.82,1.51-3.43,3.43-3.43h6.76c1.92,0,3.43,1.51,3.43,3.43Z"/>
        <path class="cls-1" d="M48.58,62.97v3.43h-13.52v-3.43c0-1.82,1.51-3.43,3.43-3.43h6.76c1.82,0,3.33,1.51,3.33,3.43Z"/>
        <path class="cls-1" d="M59.99,49.45c1.82,0,3.43,1.51,3.43,3.33s-1.51,3.33-3.43,3.33-3.43-1.51-3.43-3.33,1.51-3.33,3.43-3.33Z"/>
        <path class="cls-1" d="M41.82,49.45c1.92,0,3.43,1.51,3.43,3.33s-1.51,3.33-3.43,3.33-3.43-1.51-3.43-3.33,1.51-3.33,3.43-3.33Z"/>
        <path class="cls-1" d="M23.65,49.45c1.92,0,3.43,1.51,3.43,3.33s-1.51,3.33-3.43,3.33-3.43-1.51-3.43-3.33c.1-1.82,1.62-3.33,3.43-3.33Z"/>
        <polygon class="cls-1" points="48.58 16.64 44.04 29.06 48.58 29.06 35.06 41.47 39.6 29.06 35.06 29.06 48.58 16.64"/>
        <path class="cls-1" d="M65.64,12.2v33.81H18V12.2h47.64ZM44.04,29.06l4.54-12.42-13.52,12.42h4.54l-4.54,12.41,13.63-12.41h-4.64Z"/>
      </g>
      <g>
        <path class="cls-2" d="M65.64,46.62H18c-.3,0-.61-.3-.61-.61V12.2c0-.3.3-.61.61-.61h47.64c.3,0,.61.3.61.61v33.81c0,.4-.3.61-.61.61ZM18.6,45.41h46.33V12.81H18.6v32.6Z"/>
        <path class="cls-2" d="M59.99,33.8h-6.76c-.3,0-.61-.3-.61-.61s.3-.61.61-.61h6.76c.3,0,.61.3.61.61s-.3.61-.61.61Z"/>
        <path class="cls-2" d="M59.99,37.74h-6.76c-.3,0-.61-.3-.61-.61s.3-.61.61-.61h6.76c.3,0,.61.3.61.61s-.3.61-.61.61Z"/>
        <path class="cls-2" d="M59.99,41.78h-6.76c-.3,0-.61-.3-.61-.61s.3-.61.61-.61h6.76c.3,0,.61.3.61.61s-.3.61-.61.61Z"/>
        <path class="cls-2" d="M30.52,67.01h-13.63c-.3,0-.61-.3-.61-.61v-3.43c0-2.22,1.82-4.04,4.04-4.04h6.76c2.22,0,4.04,1.82,4.04,4.04v3.43c0,.3-.3.61-.61.61ZM17.5,65.7h12.31v-2.73c0-1.51-1.21-2.73-2.73-2.73h-6.76c-1.51,0-2.72,1.21-2.72,2.73-.1,0-.1,2.73-.1,2.73Z"/>
        <path class="cls-2" d="M48.58,67.01h-13.52c-.3,0-.61-.3-.61-.61v-3.43c0-2.22,1.82-4.04,4.04-4.04h6.76c2.22,0,4.04,1.82,4.04,4.04v3.43c0,.3-.3.61-.71.61ZM35.66,65.7h12.31v-2.73c0-1.51-1.21-2.73-2.72-2.73h-6.76c-1.51,0-2.73,1.21-2.73,2.73l-.1,2.73h0Z"/>
        <path class="cls-2" d="M66.75,67.01h-13.63c-.3,0-.61-.3-.61-.61v-3.43c0-2.22,1.82-4.04,4.04-4.04h6.76c2.22,0,4.04,1.82,4.04,4.04v3.43c0,.3-.2.61-.61.61ZM53.83,65.7h12.31v-2.73c0-1.51-1.21-2.73-2.73-2.73h-6.76c-1.51,0-2.73,1.21-2.73,2.73l-.1,2.73h0Z"/>
        <path class="cls-2" d="M23.65,56.82c-2.22,0-4.04-1.82-4.04-4.04s1.82-4.04,4.04-4.04,4.04,1.82,4.04,4.04-1.82,4.04-4.04,4.04ZM23.65,50.05c-1.51,0-2.72,1.21-2.72,2.73s1.21,2.73,2.72,2.73,2.73-1.21,2.73-2.73c.1-1.51-1.21-2.73-2.73-2.73Z"/>
        <path class="cls-2" d="M41.82,56.82c-2.22,0-4.04-1.82-4.04-4.04s1.82-4.04,4.04-4.04,4.04,1.82,4.04,4.04-1.82,4.04-4.04,4.04ZM41.82,50.05c-1.51,0-2.73,1.21-2.73,2.73s1.21,2.73,2.73,2.73,2.72-1.21,2.72-2.73-1.21-2.73-2.72-2.73Z"/>
        <path class="cls-2" d="M59.99,56.82c-2.22,0-4.04-1.82-4.04-4.04s1.82-4.04,4.04-4.04,4.04,1.82,4.04,4.04c-.1,2.22-1.82,4.04-4.04,4.04ZM59.99,50.05c-1.51,0-2.73,1.21-2.73,2.73s1.21,2.73,2.73,2.73,2.72-1.21,2.72-2.73-1.21-2.73-2.72-2.73Z"/>
        <path class="cls-2" d="M35.06,42.18c-.1,0-.2,0-.3-.1-.2-.2-.3-.5-.2-.71l4.24-11.61h-3.63c-.3,0-.5-.2-.61-.4-.1-.2,0-.5.2-.71l13.63-12.42c.2-.2.5-.2.81-.1.2.2.3.5.2.71l-4.24,11.61h3.63c.3,0,.5.2.61.4.1.2,0,.5-.2.71l-13.73,12.41c-.1.1-.3.2-.4.2ZM36.67,28.45h2.93c.2,0,.4.1.5.3.1.2.1.4.1.61l-3.63,9.99,10.5-9.59h-2.93c-.2,0-.4-.1-.5-.3-.1-.2-.1-.4-.1-.61l3.63-9.99-10.5,9.59Z"/>
        <path class="cls-2" d="M30.52,33.8h-6.76c-.3,0-.61-.3-.61-.61s.3-.61.61-.61h6.76c.3,0,.61.3.61.61s-.3.61-.61.61Z"/>
        <path class="cls-2" d="M30.52,37.74h-6.76c-.3,0-.61-.3-.61-.61s.3-.61.61-.61h6.76c.3,0,.61.3.61.61s-.3.61-.61.61Z"/>
        <path class="cls-2" d="M30.52,41.78h-6.76c-.3,0-.61-.3-.61-.61s.3-.61.61-.61h6.76c.3,0,.61.3.61.61s-.3.61-.61.61Z"/>
      </g>
    </g>
  </g>
</svg>