<?xml version="1.0" encoding="UTF-8"?>
<svg id="_2" data-name="2" xmlns="http://www.w3.org/2000/svg" viewBox="0 0 80 80">
  <defs>
    <style>
      .cls-1 {
        fill: none;
      }

      .cls-2 {
        fill: #00be76;
      }
    </style>
  </defs>
  <g id="C_-_53_desk_Business_computer_laptop_person_personal_user" data-name="C - 53, desk, Business, computer, laptop, person, personal, user">
    <g>
      <g>
        <rect class="cls-1" x="32.78" y="46.01" width="18.08" height="15.67"/>
        <polygon class="cls-1" points="68.93 28.04 68.93 32.56 66.62 32.56 58.69 32.56 58.69 28.04 68.93 28.04"/>
        <rect class="cls-1" x="58.69" y="32.56" width="7.93" height="4.42"/>
        <path class="cls-1" d="M42.92,32.56h-2.21v2.21h2.21v-2.21ZM42.92,31.45v-2.21h-2.21v2.21h2.21ZM51.96,31.35v5.62h-20.28v-5.62c0-2.51,2.01-4.52,4.52-4.52h11.35c2.41.1,4.42,2.11,4.42,4.52Z"/>
        <path class="cls-1" d="M36.2,18c0,3.11,2.51,5.62,5.62,5.62s5.62-2.51,5.62-5.62v-.9c0-.1-.1-.3-.1-.4v-.2q0-.1-.1-.2v-.1c4.72,1.1,8.23,5.32,8.23,10.34v10.64h-3.41v-5.62c0-2.41-2.01-4.42-4.42-4.42h-11.45c-2.51,0-4.52,2.01-4.52,4.52v5.62h-3.41v-10.95c0-5.02,3.52-9.24,8.33-10.34-.1.2-.1.4-.2.6,0,.1,0,.2-.1.2,0,.2-.1.5-.1.7v.5Z"/>
        <path class="cls-1" d="M41.82,23.52c-3.11,0-5.62-2.51-5.62-5.62v-.4c0-.2.1-.5.1-.7,0-.1,0-.2.1-.2.1-.2.1-.4.2-.6.8-2.11,2.81-3.61,5.22-3.61s4.42,1.51,5.22,3.61v.1q0,.1.1.2v.2c0,.1.1.3.1.4v.9c.2,3.21-2.31,5.72-5.42,5.72Z"/>
        <polygon class="cls-1" points="68.93 36.98 68.93 41.5 61 41.5 22.64 41.5 14.71 41.5 14.71 36.98 28.26 36.98 31.68 36.98 51.96 36.98 55.37 36.98 58.69 36.98 66.62 36.98 68.93 36.98"/>
        <path class="cls-1" d="M61,41.5v24.7H22.64v-24.7h38.36ZM50.86,61.68v-15.67h-18.08v15.67h18.08Z"/>
        <rect class="cls-2" x="40.71" y="32.56" width="2.21" height="2.21"/>
        <rect class="cls-2" x="40.71" y="29.14" width="2.21" height="2.21"/>
      </g>
      <g>
        <path class="cls-2" d="M68.93,42.1h-7.93c-.3,0-.6-.3-.6-.6s.3-.6.6-.6h7.23v-3.21h-1.61c-.3,0-.6-.3-.6-.6s.3-.6.6-.6h2.21c.3,0,.6.3.6.6v4.52c.1.3-.2.5-.5.5Z"/>
        <path class="cls-2" d="M58.69,37.68h-3.31c-.3,0-.6-.3-.6-.6s.3-.6.6-.6h3.41c.3,0,.6.3.6.6s-.3.6-.7.6Z"/>
        <path class="cls-2" d="M22.64,42.1h-7.93c-.3,0-.6-.3-.6-.6v-4.52c0-.3.3-.6.6-.6h13.56c.3,0,.6.3.6.6s-.3.6-.6.6h-12.85v3.21h7.23c.3,0,.6.3.6.6s-.2.7-.6.7Z"/>
        <path class="cls-2" d="M61,66.8H22.64c-.3,0-.6-.3-.6-.6v-24.7c0-.3.3-.6.6-.6h38.36c.3,0,.6.3.6.6v24.7c0,.3-.3.6-.6.6ZM23.24,65.6h37.15v-23.5H23.24v23.5Z"/>
        <path class="cls-2" d="M50.86,62.38h-18.08c-.3,0-.6-.3-.6-.6v-15.77c0-.3.3-.6.6-.6h18.08c.3,0,.6.3.6.6v15.67c0,.4-.3.7-.6.7ZM33.38,61.08h16.77v-14.46h-16.77v14.46Z"/>
        <path class="cls-2" d="M51.96,37.68c-.3,0-.6-.3-.6-.6v-5.62c0-2.11-1.71-3.82-3.82-3.82h-11.35c-2.11,0-3.92,1.71-3.92,3.82v5.62c0,.3-.3.6-.6.6s-.6-.3-.6-.6v-5.62c0-2.81,2.31-5.12,5.12-5.12h11.35c2.81,0,5.12,2.31,5.12,5.02v5.62c-.1.4-.3.7-.7.7Z"/>
        <path class="cls-2" d="M36.3,17.5h-.1c-.3-.1-.6-.4-.5-.7,0-.1,0-.2.1-.3.1-.3.4-.5.8-.4.3.1.5.4.4.8v.2c-.1.2-.4.4-.7.4Z"/>
        <path class="cls-2" d="M36.2,18.3h0c-.4,0-.6-.3-.6-.6v-.2c0-.3.3-.6.7-.6.3,0,.6.3.6.7v.1c0,.3-.3.6-.7.6Z"/>
        <path class="cls-2" d="M47.44,18.3c-.3,0-.6-.3-.6-.6v-.3c0-.3.2-.7.5-.7s.7.2.7.5v.1h0v.1c0,.6-.2.9-.6.9h0Z"/>
        <path class="cls-2" d="M47.44,17.9c-.3,0-.6-.2-.6-.6v-.1h0v-.1l.6-.1.6-.1-.7.1.6-.1v.3c.1.3-.1.6-.5.7h0Z"/>
        <path class="cls-2" d="M47.24,17.19c-.3,0-.5-.2-.6-.5v-.1c-.1-.3.1-.7.4-.8.3-.1.7.1.8.4v.2c.1.3-.1.7-.5.7q0,.1-.1.1Z"/>
        <path class="cls-2" d="M47.24,16.99c-.3,0-.5-.2-.6-.4q0-.1-.1-.2c-.1-.3.1-.7.4-.8.3-.1.7.1.8.4,0,.1.1.2.1.3.1.3-.1.7-.4.8-.1-.1-.2-.1-.2-.1Z"/>
        <path class="cls-2" d="M47.14,16.59c-.3,0-.5-.2-.6-.4-.7-1.91-2.61-3.21-4.72-3.21s-3.92,1.31-4.62,3.21c-.1.3-.5.5-.8.4-.3-.1-.5-.5-.4-.8.9-2.41,3.21-4.02,5.82-4.02s4.92,1.61,5.82,4.02c.1.3,0,.7-.4.8h-.1Z"/>
        <path class="cls-2" d="M55.37,37.68h-27.11c-.3,0-.6-.3-.6-.6v-10.74c0-2.51.9-5.02,2.51-7.03,1.61-2.01,3.82-3.31,6.23-3.92.2-.1.5,0,.6.2.2.2.2.4.1.6-.1.2-.1.3-.2.5q0,.1-.1.2c0,.2-.1.4-.1.6v.1h0v.3c0,2.71,2.21,4.92,5.02,4.92s5.02-2.21,5.02-4.92v-.3h0v-.4h0v-.1h0v-.1c0-.1,0-.2-.1-.4v-.1h0v-.1q0-.1-.1-.2h0v-.1h0c-.1-.2,0-.5.1-.6.2-.2.4-.2.6-.2,2.41.6,4.62,2.01,6.23,3.92,1.61,2.01,2.51,4.52,2.51,7.03v10.64c0,.5-.3.8-.6.8ZM28.86,36.37h25.81v-10.04c0-4.22-2.81-8.03-6.73-9.44v.2h0v.3h0v.4c0,3.41-2.81,6.23-6.23,6.23s-6.23-2.81-6.23-6.23v-.5c0-.2,0-.4.1-.6-4.02,1.41-6.73,5.22-6.73,9.44v10.24h0Z"/>
        <path class="cls-2" d="M66.62,37.68h-7.93c-.3,0-.6-.3-.6-.6v-4.42c0-.3.3-.6.6-.6s.6.3.6.6v3.82h6.63v-3.82c0-.3.3-.6.6-.6s.6.3.6.6v4.42c.2.3-.1.6-.5.6Z"/>
        <path class="cls-2" d="M68.93,33.16h-10.24c-.3,0-.6-.3-.6-.6v-4.42c0-.3.3-.6.6-.6h10.14c.3,0,.6.3.6.6v4.42c.1.3-.2.6-.5.6ZM59.39,31.96h8.94v-3.21h-8.94v3.21Z"/>
      </g>
    </g>
  </g>
</svg>