<?xml version="1.0" encoding="UTF-8"?>
<svg id="_1" data-name="1" xmlns="http://www.w3.org/2000/svg" viewBox="0 0 80 80">
  <defs>
    <style>
      .cls-1 {
        fill: none;
      }

      .cls-2 {
        fill: #00be76;
      }
    </style>
  </defs>
  <g id="C_-_65_Employee_hr_human_hunting_personal_resources_resume_search" data-name="C - 65, Employee, hr, human, hunting, personal, resources, resume, search">
    <g>
      <g>
        <path class="cls-1" d="M53.84,31.18c2.83,3.03,3.23,7.57,1.01,11,0,.1-.1.2-.2.2-.1.1-.1.2-.2.2-.1.1-.1.2-.2.2h0q-.1.1-.2.2t-.2.2l-.1.1-.1.1-.1.1q-.1.1-.2.2-.1.1-.2.2-.1.1-.2.2h0c-.1,0-.1.1-.2.1l-.1.1-.1.1-.1.1c-.1.1-.2.1-.2.2-.1,0-.1.1-.2.1s-.1.1-.2.1h0c-.1,0-.1.1-.2.1s-.2.1-.2.1c-3.53,1.92-8.07,1.31-11-1.72-.81-.81-1.41-1.82-1.82-2.72,0-.1-.1-.1-.1-.2s0-.1-.1-.2q0-.1-.1-.2v-.1c0-.1-.1-.2-.1-.4q0-.1-.1-.2c0-.1,0-.2-.1-.2v-2.93h0v-.4c0-.2.1-.5.1-.71q0-.1.1-.2,0-.1.1-.2c0-.1.1-.3.1-.4s0-.1.1-.2h0c0-.1.1-.1.1-.2.1-.2.2-.4.3-.61,0-.1.1-.1.1-.2h0c0-.1.1-.1.1-.2h0c0-.1.1-.1.1-.2s.1-.1.1-.2c.4-.61.81-1.11,1.41-1.62,3.94-3.53,9.69-3.33,13.12.3Z"/>
        <path class="cls-1" d="M54.85,42.18l3.33,3.53-3.33,3.13-3.23-3.53c.1,0,.2-.1.2-.1.1,0,.2-.1.2-.1h0c.1,0,.2-.1.2-.1.1,0,.1-.1.2-.1.1-.1.2-.1.2-.2,0,0,.1,0,.1-.1l.1-.1.1-.1c.1,0,.1-.1.2-.1h0q.1-.1.2-.2t.2-.2.2-.2l.1-.1.1-.1.1-.1q.1-.1.2-.2.1-.1.2-.2h0c.1-.1.1-.2.2-.2.1-.1.1-.2.2-.2-.1-.2,0-.3,0-.4Z"/>
        <path class="cls-1" d="M62.82,49.05l3.94,4.14-3.94,3.63-1.11,1.01-7.77-8.28.81-.81,3.33-3.13.81-.81,3.94,4.24ZM62.92,53.19c0-.61-.5-1.11-1.11-1.11s-1.11.5-1.11,1.11.5,1.11,1.11,1.11,1.11-.5,1.11-1.11Z"/>
        <path class="cls-1" d="M39.61,32.5c0,.1-.1.1-.1.2s-.1.1-.1.2h0c0,.1-.1.1-.1.2h0c0,.1-.1.1-.1.2-.1.2-.2.4-.3.61,0,.1-.1.1-.1.2h0c0,.1-.1.1-.1.2-.1.1-.1.3-.1.4s0,.1-.1.2c-.1.1,0,.1-.1.2-.1.2-.1.5-.1.71v.4h0v2.93c0,.1,0,.2.1.2q0,.1.1.2c0,.1.1.2.1.4v.1q0,.1.1.2t.1.2c0,.1.1.1.1.2h-14.53v-5.05c0-2.22,1.82-4.04,4.04-4.04h8.98c.81.2,1.61.4,2.22.91ZM33.45,37.34v-2.22h-2.22v2.22h2.22Z"/>
        <path class="cls-1" d="M32.85,19.37c2.52,0,4.54,2.02,4.54,4.54s-2.02,4.54-4.54,4.54-4.54-2.02-4.54-4.54,2.02-4.54,4.54-4.54Z"/>
        <path class="cls-1" d="M62.82,56.82v6.46H19.83V13.72h43v35.33l-3.84-4.04-.81.81-3.33-3.53c2.12-3.43,1.82-7.87-1.01-11-3.43-3.63-9.19-3.84-12.82-.4-.5.5-1.01,1.11-1.41,1.62-.61-.4-1.41-.71-2.22-.71h-8.98c-2.22,0-4.04,1.82-4.04,4.04v5.05h14.43c.4,1.01,1.01,1.92,1.82,2.72,2.93,3.13,7.47,3.73,11,1.72l3.33,3.53-.81.81,7.77,8.28.91-1.11ZM37.39,23.81c0-2.52-2.02-4.54-4.54-4.54s-4.54,2.02-4.54,4.54,2.02,4.54,4.54,4.54,4.54-2.02,4.54-4.54Z"/>
        <path class="cls-2" d="M61.81,52.08c.61,0,1.11.5,1.11,1.11s-.5,1.11-1.11,1.11-1.11-.5-1.11-1.11c-.1-.61.4-1.11,1.11-1.11Z"/>
        <rect class="cls-2" x="31.13" y="35.12" width="2.22" height="2.22"/>
      </g>
      <g>
        <path class="cls-2" d="M61.81,58.44c-.2,0-.3-.1-.5-.2-.2-.3-.2-.61,0-.91l1.11-1.01c.3-.2.61-.2.91,0,.2.3.2.61,0,.91l-1.11,1.01c-.1.2-.3.2-.4.2Z"/>
        <path class="cls-2" d="M62.82,63.99H19.83c-.3,0-.61-.3-.61-.61V13.72c0-.3.3-.61.61-.61h43c.3,0,.61.3.61.61v35.33c0,.3-.3.61-.61.61s-.61-.3-.61-.61V14.33H20.43v48.35h41.79v-5.85c0-.3.3-.61.61-.61s.61.3.61.61v6.46c0,.4-.2.71-.61.71Z"/>
        <path class="cls-2" d="M39.41,33.4c-.1,0-.2,0-.3-.1-.3-.2-.4-.61-.2-.91,0-.1.1-.1.1-.2.2-.3.61-.4.91-.2.3.2.4.61.2.91,0,.1-.1.1-.1.2-.2.2-.4.3-.61.3Z"/>
        <path class="cls-2" d="M39.31,33.61c-.1,0-.2,0-.3-.1-.3-.2-.4-.5-.2-.91,0-.1.1-.1.1-.2.2-.3.61-.4.91-.2.3.2.4.61.2.91,0,.1-.1.1-.1.2-.2.2-.4.3-.61.3Z"/>
        <path class="cls-2" d="M39.21,33.81c-.1,0-.2,0-.3-.1-.3-.2-.4-.5-.3-.81,0-.1.1-.1.1-.2.2-.3.5-.4.91-.2.3.2.4.5.2.91,0,.1-.1.1-.1.2-.1.1-.3.2-.5.2Z"/>
        <path class="cls-2" d="M38.8,34.72h-.2c-.3-.1-.5-.5-.3-.81,0-.1.1-.2.1-.2.1-.3.5-.5.81-.3.3.1.5.5.3.81,0,.1-.1.1-.1.2-.1.1-.4.3-.61.3Z"/>
        <path class="cls-2" d="M38.7,34.92h-.2c-.3-.1-.5-.5-.4-.81h0q0-.1.1-.2c.1-.3.5-.5.81-.3.3.1.5.5.3.81q0,.1-.1.2h0c0,.1-.2.3-.5.3Z"/>
        <path class="cls-2" d="M38.4,35.72h-.2c-.3-.1-.5-.4-.4-.81q0-.1.1-.2t.1-.2h0c.1-.3.4-.5.81-.4.3.1.5.4.4.81h0v.2q0,.1-.1.2c-.1.3-.4.4-.71.4Z"/>
        <path class="cls-2" d="M38.2,36.94s0-.1,0,0c-.4-.1-.71-.4-.61-.71v-.4c.1-.3.4-.61.71-.5.3.1.61.4.5.71v.4c0,.2-.3.5-.61.5Z"/>
        <path class="cls-2" d="M38.2,37.14h0c-.4,0-.71-.3-.61-.71v-.2c0-.3.4-.61.71-.61s.61.3.5.71v.2c0,.3-.3.61-.61.61Z"/>
        <path class="cls-2" d="M38.2,37.54s-.1,0,0,0c-.4,0-.61-.3-.61-.71v-.2c0-.3.3-.61.71-.61.3,0,.61.3.61.71v.2c-.1.4-.4.61-.71.61Z"/>
        <path class="cls-2" d="M38.2,37.84c-.3,0-.61-.3-.61-.61v-.2c0-.3.3-.61.71-.61.3,0,.61.3.61.71v.1c-.1.3-.4.61-.71.61Z"/>
        <path class="cls-2" d="M38.2,38.85c-.3,0-.61-.2-.61-.61v-.5c0-.3.3-.61.61-.61s.61.3.61.61v.3h0v.1c.1.4-.2.71-.61.71h0Z"/>
        <path class="cls-2" d="M38.3,39.46c-.3,0-.61-.2-.61-.5v-.2c0-.3.2-.71.5-.71s.71.2.71.5v.1c.1.3-.2.71-.5.71l-.1.1Z"/>
        <path class="cls-2" d="M38.4,39.96c-.3,0-.5-.2-.61-.5v-.4c-.1-.3.2-.71.5-.71.3-.1.71.2.71.5v.2h0v.2c.1.3-.1.71-.5.71h-.1Z"/>
        <path class="cls-2" d="M38.5,40.37c-.3,0-.5-.2-.61-.5q0-.1-.1-.2c-.1-.3.1-.71.5-.71.3-.1.71.1.71.5v.2c.1.3-.1.71-.4.81,0-.1-.1-.1-.1-.1Z"/>
        <path class="cls-2" d="M38.6,40.87c-.3,0-.5-.2-.61-.4q0-.1-.1-.2c-.1-.3.1-.71.4-.81.3-.1.71.1.81.4v.1c.1.3-.1.71-.4.81q0,.1-.1.1Z"/>
        <path class="cls-2" d="M38.7,41.18c-.2,0-.5-.1-.61-.4q0-.1-.1-.2c-.1-.3.1-.71.4-.81.3-.1.71.1.81.4v.1c.1.3,0,.71-.4.81.1.1,0,.1-.1.1Z"/>
        <path class="cls-2" d="M47.18,47.03c-2.62,0-5.25-1.01-7.07-3.03-.81-.91-1.41-1.92-1.92-2.93-.1-.3,0-.71.3-.81.3-.1.71,0,.81.3.4.91.91,1.82,1.62,2.62,2.62,2.83,6.86,3.53,10.19,1.62.3-.2.71-.1.81.2.2.3.1.71-.2.81-1.31.81-2.93,1.21-4.54,1.21Z"/>
        <path class="cls-2" d="M51.82,45.82c-.2,0-.4-.1-.5-.3-.2-.3-.1-.71.2-.91.1,0,.1-.1.2-.1.3-.2.71-.1.91.2.2.3.1.71-.2.91-.1,0-.2.1-.2.1-.2,0-.3.1-.4.1Z"/>
        <path class="cls-2" d="M52.02,45.62c-.2,0-.4-.1-.5-.3-.2-.3-.1-.71.2-.91.1,0,.1-.1.2-.1s.1-.1.2-.1c.3-.2.71-.1.91.1.2.2.1.71-.1.91-.1.1-.2.1-.3.2-.1,0-.2.1-.2.2h-.4Z"/>
        <path class="cls-2" d="M52.73,45.21c-.2,0-.4-.1-.5-.3-.2-.3-.1-.71.1-.91l.1-.1h0s.1,0,.1-.1c.3-.2.71-.2.91.1.2.3.2.71-.1.91l-.1.1-.1.1c-.1.1-.3.2-.4.2Z"/>
        <path class="cls-2" d="M53.03,44.91c-.2,0-.4-.1-.5-.2-.2-.3-.2-.71.1-.91l.1-.1c.3-.2.71-.2.91.1.2.3.2.71-.1.91q-.1.1-.2.2h-.3Z"/>
        <path class="cls-2" d="M53.23,44.81c-.2,0-.4-.1-.5-.2-.2-.3-.2-.71.1-.91q.1-.1.2-.2t.2-.2c.2-.2.61-.2.91,0,.2.2.2.61,0,.91q-.1.1-.2.2-.1.1-.2.2c-.2.1-.4.2-.5.2Z"/>
        <path class="cls-2" d="M53.74,44.2c-.2,0-.3-.1-.5-.2-.2-.2-.2-.61,0-.91l.1-.1h0l.1-.1c.2-.3.61-.3.91-.1.3.2.3.61.1.91l-.1.1-.1.1c-.1.3-.3.3-.5.3Z"/>
        <path class="cls-2" d="M54.04,44c-.1,0-.3-.1-.4-.2-.3-.2-.3-.61,0-.91q.1-.1.1-.2t.2-.2c.2-.3.61-.3.91-.1.3.2.3.61.1.91-.1.1-.1.2-.2.2q-.1.1-.2.2c-.2.2-.3.3-.5.3Z"/>
        <path class="cls-2" d="M54.35,43.5c-.1,0-.3,0-.4-.1-.3-.2-.3-.61-.1-.91q.1-.1.2-.2t.1-.2h0c0-.1.1-.1.1-.2,2.02-3.23,1.61-7.47-1.01-10.19-3.13-3.43-8.48-3.53-11.91-.4-.5.5-.91,1.01-1.31,1.51-.2.3-.61.4-.91.2-.3-.2-.4-.61-.2-.91.4-.61.91-1.21,1.51-1.82,3.94-3.63,10.09-3.43,13.73.5,3.03,3.23,3.43,8.08,1.11,11.71-.1.1-.1.2-.2.3-.1.1-.1.2-.2.3-.1.1-.1.2-.2.2.1.2-.1.2-.3.2Z"/>
        <path class="cls-2" d="M54.85,49.45c-.2,0-.3-.1-.5-.2l-3.33-3.53c-.1-.1-.2-.3-.2-.5s.1-.4.3-.4c.1,0,.2-.1.2-.1.1,0,.1-.1.2-.1h0c.1,0,.1-.1.2-.1s.1-.1.2-.1h0c.1,0,.1-.1.2-.2h0l.1-.1h0s.1,0,.1-.1h.1c.1,0,.1-.1.2-.1h0q.1-.1.2-.2t.2-.2l.1-.1h0l.1-.1h0l.1-.1h0q.1-.1.2-.2.1-.1.2-.2h0q.1-.1.2-.2.1-.1.2-.2.1-.1.1-.2c.1-.2.3-.3.5-.3s.4.1.5.2l3.43,3.23c.2.3.2.61,0,.91-.3.2-.61.2-.91,0l-2.73-2.93s0,.1-.1.1h0c-.1.1-.1.2-.2.2q-.1.1-.2.2l-.1.1-.1.1-.1.1q-.1.1-.2.2-.1.1-.2.2-.1.1-.2.2h0c-.1,0-.1.1-.2.1l-.1.1-.1.1-.1.1c-.1.1-.2.1-.2.2-.1,0-.2,0-.3.1h-.1l2.73,2.93c.2.3.2.61,0,.91-.1.1-.2.2-.4.2Z"/>
        <path class="cls-2" d="M61.81,58.44c-.2,0-.3-.1-.5-.2l-7.77-8.28c-.1-.1-.2-.3-.2-.4,0-.2.1-.3.2-.4l4.95-4.64c.3-.2.61-.2.91,0l7.77,8.28c.1.1.2.3.2.4,0,.2-.1.3-.2.4l-3.94,3.63h0l-1.11,1.01c0,.2-.2.2-.3.2ZM54.95,49.55l6.86,7.37.61-.5h0l3.43-3.23-6.86-7.37-4.04,3.73Z"/>
        <path class="cls-2" d="M37.99,50.46h-12.52c-.3,0-.61-.3-.61-.61s.3-.61.61-.61h12.52c.3,0,.61.3.61.61s-.3.61-.61.61Z"/>
        <path class="cls-2" d="M48.19,53.79h-22.71c-.3,0-.61-.3-.61-.61s.3-.61.61-.61h22.71c.3,0,.61.3.61.61s-.3.61-.61.61Z"/>
        <path class="cls-2" d="M48.19,57.22h-22.71c-.3,0-.61-.3-.61-.61s.3-.61.61-.61h22.71c.3,0,.61.3.61.61s-.3.61-.61.61Z"/>
        <path class="cls-2" d="M38.8,41.38h-14.43c-.3,0-.61-.3-.61-.61v-5.05c0-2.52,2.12-4.64,4.64-4.64h8.98c.91,0,1.82.3,2.62.81.3.2.4.61.2.91,0,.1-.1.1-.1.2s-.1.1-.1.2h0c0,.1-.1.1-.1.2h0c0,.1-.1.1-.1.2-.1.2-.2.4-.3.61,0,.1-.1.1-.1.2h0q0,.1-.1.2c0,.1-.1.3-.1.4h0v.2h0v.2c-.1.2-.1.4-.1.61v.4h0v.4h0v.3h0v.1h0v.91h0v.1h0v.81h0v.2c0,.1,0,.2.1.2h0v.2c0,.1.1.2.1.3v.1h0v.1h0v.1h0s0,.1.1.1c0,.1.1.2.1.3-.1.4-.3.71-.71.71ZM24.97,40.17h12.92c0-.1,0-.2-.1-.2q0-.1-.1-.2c0-.1,0-.2-.1-.3v-.2h0v-2.32h0v-.4h0v-.4c0-.2.1-.5.2-.71q0-.1.1-.2h0q0-.1.1-.2h0c.1-.2.1-.3.2-.5,0-.1.1-.1.1-.2h0c0-.1.1-.2.1-.2.1-.2.2-.4.3-.71,0-.1.1-.1.1-.2h0c-.4-.2-.91-.3-1.41-.3h-8.98c-1.92,0-3.43,1.51-3.43,3.33v3.94h0Z"/>
        <path class="cls-2" d="M32.85,28.96c-2.83,0-5.15-2.32-5.15-5.15s2.32-5.15,5.15-5.15,5.15,2.32,5.15,5.15-2.32,5.15-5.15,5.15ZM32.85,19.98c-2.12,0-3.94,1.72-3.94,3.83s1.72,3.84,3.94,3.84,3.94-1.72,3.94-3.84-1.72-3.83-3.94-3.83Z"/>
        <path class="cls-2" d="M51.52,68.53H15.28c-.3,0-.61-.3-.61-.61V30.98c0-.3.3-.61.61-.61s.61.3.61.61v36.24h35.63c.3,0,.61.3.61.61.1.4-.2.71-.61.71Z"/>
      </g>
    </g>
  </g>
</svg>